<?xml version="1.0" encoding="UTF-8"?>
<!DOCTYPE svg PUBLIC "-//W3C//DTD SVG 1.1//EN" "http://www.w3.org/Graphics/SVG/1.1/DTD/svg11.dtd">
<svg xmlns="http://www.w3.org/2000/svg" version="1.1" width="870px" height="287px" style="shape-rendering:geometricPrecision; text-rendering:geometricPrecision; image-rendering:optimizeQuality; fill-rule:evenodd; clip-rule:evenodd" xmlns:xlink="http://www.w3.org/1999/xlink">
<g><path style="opacity:0.004" fill="#fefffe" d="M 44.5,6.5 C 45.8333,7.16667 45.8333,7.16667 44.5,6.5 Z"/></g>
<g><path style="opacity:0.004" fill="#fefffe" d="M 287.5,6.5 C 288.833,7.16667 288.833,7.16667 287.5,6.5 Z"/></g>
<g><path style="opacity:0.004" fill="#fefffe" d="M 671.5,11.5 C 672.833,12.1667 672.833,12.1667 671.5,11.5 Z"/></g>
<g><path style="opacity:0.004" fill="#fefffe" d="M 755.5,11.5 C 756.833,12.1667 756.833,12.1667 755.5,11.5 Z"/></g>
<g><path style="opacity:0.004" fill="#fefffe" d="M 830.5,14.5 C 831.833,15.1667 831.833,15.1667 830.5,14.5 Z"/></g>
<g><path style="opacity:0.004" fill="#fefffe" d="M 641.5,16.5 C 642.833,17.1667 642.833,17.1667 641.5,16.5 Z"/></g>
<g><path style="opacity:0.004" fill="#fefffe" d="M 296.5,19.5 C 297.833,20.1667 297.833,20.1667 296.5,19.5 Z"/></g>
<g><path style="opacity:0.004" fill="#fefffe" d="M 815.5,28.5 C 816.833,29.1667 816.833,29.1667 815.5,28.5 Z"/></g>
<g><path style="opacity:0.004" fill="#fefffe" d="M 152.5,32.5 C 153.833,33.1667 153.833,33.1667 152.5,32.5 Z"/></g>
<g><path style="opacity:0.004" fill="#fefffe" d="M 413.5,34.5 C 414.833,35.1667 414.833,35.1667 413.5,34.5 Z"/></g>
<g><path style="opacity:0.004" fill="#fefffe" d="M 419.5,42.5 C 420.833,43.1667 420.833,43.1667 419.5,42.5 Z"/></g>
<g><path style="opacity:0.004" fill="#fefffe" d="M 383.5,43.5 C 384.833,44.1667 384.833,44.1667 383.5,43.5 Z"/></g>
<g><path style="opacity:0.004" fill="#fefffe" d="M 797.5,43.5 C 798.833,44.1667 798.833,44.1667 797.5,43.5 Z"/></g>
<g><path style="opacity:0.004" fill="#fefffe" d="M 26.5,50.5 C 27.8333,51.1667 27.8333,51.1667 26.5,50.5 Z"/></g>
<g><path style="opacity:0.004" fill="#fefffe" d="M 326.5,51.5 C 327.833,52.1667 327.833,52.1667 326.5,51.5 Z"/></g>
<g><path style="opacity:0.004" fill="#fefffe" d="M 449.5,62.5 C 450.833,63.1667 450.833,63.1667 449.5,62.5 Z"/></g>
<g><path style="opacity:0.004" fill="#fefffe" d="M 437.5,64.5 C 438.833,65.1667 438.833,65.1667 437.5,64.5 Z"/></g>
<g><path style="opacity:0.004" fill="#fefffe" d="M 455.5,73.5 C 456.833,74.1667 456.833,74.1667 455.5,73.5 Z"/></g>
<g><path style="opacity:0.004" fill="#fefffe" d="M 812.5,74.5 C 813.833,75.1667 813.833,75.1667 812.5,74.5 Z"/></g>
<g><path style="opacity:0.004" fill="#fefffe" d="M 806.5,79.5 C 807.833,80.1667 807.833,80.1667 806.5,79.5 Z"/></g>
<g><path style="opacity:0.004" fill="#fefffe" d="M 785.5,80.5 C 786.833,81.1667 786.833,81.1667 785.5,80.5 Z"/></g>
<g><path style="opacity:0.004" fill="#fefffe" d="M 812.5,84.5 C 813.833,85.1667 813.833,85.1667 812.5,84.5 Z"/></g>
<g><path style="opacity:0.004" fill="#fefffe" d="M 701.5,86.5 C 702.833,87.1667 702.833,87.1667 701.5,86.5 Z"/></g>
<g><path style="opacity:0.004" fill="#fefffe" d="M 8.5,102.5 C 9.83333,103.167 9.83333,103.167 8.5,102.5 Z"/></g>
<g><path style="opacity:0.004" fill="#fefffe" d="M 437.5,111.5 C 438.833,112.167 438.833,112.167 437.5,111.5 Z"/></g>
<g><path style="opacity:1" fill="#373c42" d="M 335.5,113.5 C 338.909,113.249 342.242,113.583 345.5,114.5C 349.311,121.546 347.311,125.546 339.5,126.5C 333.128,126.115 330.961,122.782 333,116.5C 333.698,115.309 334.531,114.309 335.5,113.5 Z"/></g>
<g><path style="opacity:0.693" fill="#35383f" d="M 447.5,130.5 C 447.5,131.833 446.833,132.5 445.5,132.5C 444.995,128.6 444.995,124.6 445.5,120.5C 443.085,120.373 440.751,120.207 438.5,120C 439.458,121.147 439.125,122.147 437.5,123C 438.167,123.333 438.833,123.667 439.5,124C 438.09,124.368 437.09,125.201 436.5,126.5C 438.005,127.842 438.672,129.508 438.5,131.5C 436.044,132.722 433.044,134.222 429.5,136C 431.651,137.57 433.818,139.07 436,140.5C 436.172,147.346 436.672,154.013 437.5,160.5C 437.272,163.926 438.605,166.593 441.5,168.5C 445.299,167.891 448.966,168.558 452.5,170.5C 446.587,172.352 441.087,171.352 436,167.5C 434.557,158.608 434.057,149.608 434.5,140.5C 432.167,140.5 429.833,140.5 427.5,140.5C 427.335,137.482 427.502,134.482 428,131.5C 430.041,130.577 432.208,130.244 434.5,130.5C 433.005,120.331 437.339,116.331 447.5,118.5C 447.5,122.5 447.5,126.5 447.5,130.5 Z"/></g>
<g><path style="opacity:1" fill="#1da9af" d="M 105.5,138.5 C 105.481,136.94 105.148,135.44 104.5,134C 105.943,131.463 107.61,128.796 109.5,126C 106.997,124.451 106.997,122.784 109.5,121C 105.76,123.63 101.76,125.463 97.5,126.5C 107.814,110.548 122.481,103.548 141.5,105.5C 123.702,110.303 111.702,121.303 105.5,138.5 Z"/></g>
<g><path style="opacity:1" fill="#1da9b0" d="M 182.5,161.5 C 182.819,159.25 182.319,157.25 181,155.5C 180.667,156.167 180.333,156.833 180,157.5C 179.589,149.85 179.756,142.35 180.5,135C 178.729,132.887 177.229,133.053 176,135.5C 175.647,133.926 174.98,132.259 174,130.5C 173.654,132.218 173.154,133.885 172.5,135.5C 174.167,136.167 175.833,136.833 177.5,137.5C 176.91,138.799 175.91,139.632 174.5,140C 174.833,140.333 175.167,140.667 175.5,141C 173.817,144.892 172.817,149.059 172.5,153.5C 173.376,154.251 174.376,154.751 175.5,155C 174.809,156.067 174.309,157.234 174,158.5C 173.577,157.044 172.744,156.544 171.5,157C 172.28,158.073 172.113,159.24 171,160.5C 170.329,161.252 169.496,161.586 168.5,161.5C 172.812,148.089 171.645,134.422 165,120.5C 162.766,116.542 159.933,113.042 156.5,110C 160.16,110.151 163.494,111.485 166.5,114C 181.38,126.807 186.713,142.64 182.5,161.5 Z"/></g>
<g><path style="opacity:1" fill="#16acb2" d="M 105.5,138.5 C 104.973,146.167 104.307,153.834 103.5,161.5C 97.3294,156.976 92.9961,151.142 90.5,144C 91.3952,137.459 93.7285,131.625 97.5,126.5C 101.76,125.463 105.76,123.63 109.5,121C 106.997,122.784 106.997,124.451 109.5,126C 107.61,128.796 105.943,131.463 104.5,134C 105.148,135.44 105.481,136.94 105.5,138.5 Z"/></g>
<g><path style="opacity:0.004" fill="#fefffe" d="M 134.5,127.5 C 135.833,128.167 135.833,128.167 134.5,127.5 Z"/></g>
<g><path style="opacity:1" fill="#393d46" d="M 445.5,132.5 C 445.5,136.167 445.5,139.833 445.5,143.5C 444.167,143.5 442.833,143.5 441.5,143.5C 440.883,143.611 440.383,143.944 440,144.5C 439.326,149.907 438.492,155.24 437.5,160.5C 436.672,154.013 436.172,147.346 436,140.5C 433.818,139.07 431.651,137.57 429.5,136C 433.044,134.222 436.044,132.722 438.5,131.5C 438.672,129.508 438.005,127.842 436.5,126.5C 437.09,125.201 438.09,124.368 439.5,124C 438.833,123.667 438.167,123.333 437.5,123C 439.125,122.147 439.458,121.147 438.5,120C 440.751,120.207 443.085,120.373 445.5,120.5C 444.995,124.6 444.995,128.6 445.5,132.5 Z"/></g>
<g><path style="opacity:0.953" fill="#383b41" d="M 658.5,162.5 C 656.561,164.338 654.228,164.505 651.5,163C 648.667,161.167 648.833,159.667 652,158.5C 653.333,159.167 654.667,159.833 656,160.5C 657.144,151.935 656.31,143.602 653.5,135.5C 650.473,133.471 647.14,132.471 643.5,132.5C 638.433,133.1 633.433,133.1 628.5,132.5C 635.879,129.366 643.546,128.866 651.5,131C 654.869,133.365 657.036,136.532 658,140.5C 658.5,147.826 658.666,155.159 658.5,162.5 Z"/></g>
<g><path style="opacity:1" fill="#373a40" d="M 738.5,139.5 C 737.375,138.937 736.041,137.77 734.5,136C 732.414,135.685 730.414,135.185 728.5,134.5C 728.607,132.621 728.107,132.288 727,133.5C 726,132.833 725,132.167 724,131.5C 710.626,133.338 705.459,140.671 708.5,153.5C 707.861,154.097 707.528,154.93 707.5,156C 709.134,159.253 709.801,162.753 709.5,166.5C 703.993,157.752 703.16,148.419 707,138.5C 713.907,129.157 722.741,126.99 733.5,132C 736.2,133.857 737.866,136.357 738.5,139.5 Z"/></g>
<g><path style="opacity:1" fill="#383c46" d="M 505.5,130.5 C 508.263,130.744 510.429,132.077 512,134.5C 512.708,133.619 513.542,132.953 514.5,132.5C 514.343,133.873 514.51,135.207 515,136.5C 515.974,134.122 516.641,134.456 517,137.5C 518.552,132.588 521.718,131.255 526.5,133.5C 527.364,135.197 528.697,136.363 530.5,137C 528.109,137.691 528.109,138.691 530.5,140C 529.181,141.628 527.848,141.461 526.5,139.5C 525.914,139.709 525.414,140.043 525,140.5C 525.128,142.445 524.962,144.278 524.5,146C 525.624,146.249 526.624,146.749 527.5,147.5C 527.376,148.107 527.043,148.44 526.5,148.5C 525.791,147.596 524.791,147.263 523.5,147.5C 523.887,143.276 522.387,139.943 519,137.5C 518.085,138.328 517.419,139.328 517,140.5C 516.107,139.919 515.107,139.585 514,139.5C 511.882,140.476 509.715,141.31 507.5,142C 508.563,143.188 509.897,143.688 511.5,143.5C 512.049,153.026 511.382,162.359 509.5,171.5C 506.813,171.664 504.146,171.497 501.5,171C 500.944,170.617 500.611,170.117 500.5,169.5C 501.707,168.811 503.041,168.645 504.5,169C 502.923,166.043 503.256,163.376 505.5,161C 505,160.5 504.5,160 504,159.5C 503.667,154.5 503.333,149.5 503,144.5C 502.225,140.222 499.725,137.889 495.5,137.5C 495.383,135.516 496.05,133.85 497.5,132.5C 500.25,130.861 502.917,130.195 505.5,130.5 Z"/></g>
<g><path style="opacity:1" fill="#383c45" d="M 643.5,132.5 C 647.14,132.471 650.473,133.471 653.5,135.5C 656.31,143.602 657.144,151.935 656,160.5C 654.667,159.833 653.333,159.167 652,158.5C 648.833,159.667 648.667,161.167 651.5,163C 654.228,164.505 656.561,164.338 658.5,162.5C 659.695,162.866 660.361,163.699 660.5,165C 657.873,172.241 653.539,173.408 647.5,168.5C 645.261,169.788 642.928,170.788 640.5,171.5C 637.476,170.798 635.81,168.798 635.5,165.5C 636.376,164.749 637.376,164.249 638.5,164C 636.889,163.71 635.556,162.877 634.5,161.5C 635.5,161.167 636.167,160.5 636.5,159.5C 637.779,160.968 639.446,161.635 641.5,161.5C 641.461,162.756 641.961,163.756 643,164.5C 644.498,162.016 645.998,159.516 647.5,157C 646.846,155.013 645.513,153.68 643.5,153C 644.167,152.667 644.833,152.333 645.5,152C 642.059,150.682 640.725,148.182 641.5,144.5C 641.833,144.5 642.167,144.5 642.5,144.5C 642.415,145.995 643.081,146.995 644.5,147.5C 645.354,146.052 646.354,144.719 647.5,143.5C 646.937,138.777 643.937,135.943 638.5,135C 640.175,134.015 641.842,133.181 643.5,132.5 Z"/></g>
<g><path style="opacity:1" fill="#393c45" d="M 617.5,151.5 C 616.421,154.617 615.754,157.95 615.5,161.5C 615.649,163.32 616.316,164.82 617.5,166C 615.699,166.317 615.366,166.984 616.5,168C 615.124,170.543 613.957,170.709 613,168.5C 612.667,168.833 612.333,169.167 612,169.5C 610.951,167.893 609.451,167.227 607.5,167.5C 607.666,162.156 607.499,156.823 607,151.5C 606.626,150.584 606.126,149.75 605.5,149C 606.762,146.821 608.095,144.655 609.5,142.5C 606.706,139.608 603.039,138.942 598.5,140.5C 597.85,140.804 597.183,141.137 596.5,141.5C 595.735,140.388 594.735,139.721 593.5,139.5C 593.586,138.504 593.252,137.671 592.5,137C 595.593,137.616 598.093,136.45 600,133.5C 600.333,133.833 600.667,134.167 601,134.5C 601.47,133.423 601.303,132.423 600.5,131.5C 607.855,127.913 613.355,129.913 617,137.5C 617.499,142.155 617.666,146.821 617.5,151.5 Z"/></g>
<g><path style="opacity:1" fill="#373b42" d="M 628.5,132.5 C 633.433,133.1 638.433,133.1 643.5,132.5C 641.842,133.181 640.175,134.015 638.5,135C 643.937,135.943 646.937,138.777 647.5,143.5C 646.354,144.719 645.354,146.052 644.5,147.5C 643.081,146.995 642.415,145.995 642.5,144.5C 645.17,144.582 645.17,143.415 642.5,141C 638.294,140.838 634.127,141.338 630,142.5C 626.46,141.103 624.627,138.436 624.5,134.5C 625.32,132.889 626.654,132.222 628.5,132.5 Z"/></g>
<g><path style="opacity:1" fill="#383b40" d="M 699.5,140.5 C 699.633,137.075 698.967,136.742 697.5,139.5C 696.272,137.99 696.272,136.49 697.5,135C 695.579,134.64 693.912,133.806 692.5,132.5C 691.403,134.229 690.237,135.896 689,137.5C 688.051,135.907 686.885,134.574 685.5,133.5C 683.088,131.838 680.254,130.838 677,130.5C 675.5,132.469 673.667,133.802 671.5,134.5C 669.13,134.983 668.463,136.149 669.5,138C 666.668,141.251 665.335,145.084 665.5,149.5C 665.296,152.906 665.962,156.072 667.5,159C 666.473,159.513 665.473,160.013 664.5,160.5C 663.347,154.681 663.181,148.681 664,142.5C 668.747,129.542 677.247,126.208 689.5,132.5C 695.853,127.506 699.853,129.006 701.5,137C 701.192,138.459 700.525,139.626 699.5,140.5 Z"/></g>
<g><path style="opacity:0.863" fill="#3b3f44" d="M 229.5,132.5 C 229.225,134.758 228.225,135.092 226.5,133.5C 225.459,135.991 224.626,135.991 224,133.5C 223.692,134.308 223.192,134.975 222.5,135.5C 221.263,153.821 221.263,171.488 222.5,188.5C 221.504,188.586 220.671,188.252 220,187.5C 219.333,168.5 219.333,149.5 220,130.5C 223.715,128.867 226.882,129.534 229.5,132.5 Z"/></g>
<g><path style="opacity:1" fill="#383c45" d="M 237.5,129.5 C 239.354,129.888 241.021,131.221 242.5,133.5C 244.836,132.977 247.17,133.477 249.5,135C 248.939,136.566 249.606,137.899 251.5,139C 248.44,140.041 245.44,140.541 242.5,140.5C 240.9,139.748 239.4,138.748 238,137.5C 236.601,138.227 235.101,138.727 233.5,139C 235.901,139.805 235.734,140.638 233,141.5C 231.636,140.742 230.469,141.242 229.5,143C 229.434,148.298 229.6,153.798 230,159.5C 231.46,161.422 233.127,162.089 235,161.5C 236.622,162.099 238.122,162.766 239.5,163.5C 239.721,164.735 240.388,165.735 241.5,166.5C 240.509,168.123 241.176,169.123 243.5,169.5C 245.936,167.384 248.603,165.717 251.5,164.5C 248.984,169.468 244.818,171.801 239,171.5C 237.236,171.456 235.569,171.122 234,170.5C 233.822,175.627 232.988,180.627 231.5,185.5C 228.785,187.264 225.785,188.264 222.5,188.5C 221.263,171.488 221.263,153.821 222.5,135.5C 223.192,134.975 223.692,134.308 224,133.5C 224.626,135.991 225.459,135.991 226.5,133.5C 228.225,135.092 229.225,134.758 229.5,132.5C 230.117,132.611 230.617,132.944 231,133.5C 232.944,131.779 235.11,130.446 237.5,129.5 Z"/></g>
<g><path style="opacity:0.982" fill="#383c45" d="M 336.5,129.5 C 336.918,130.222 337.584,130.722 338.5,131C 337.833,131.333 337.167,131.667 336.5,132C 337.662,132.827 338.829,133.66 340,134.5C 343.194,133.486 345.027,134.82 345.5,138.5C 344.085,140.28 344.252,141.946 346,143.5C 346.17,154.341 346.67,165.008 347.5,175.5C 347.5,176.167 347.5,176.833 347.5,177.5C 346.373,178.122 345.373,178.955 344.5,180C 343.5,180.667 342.5,180.667 341.5,180C 343.267,176.834 344.267,173.334 344.5,169.5C 342.863,163.074 343.196,156.908 345.5,151C 344.833,150.667 344.167,150.333 343.5,150C 344.019,147.974 344.353,145.974 344.5,144C 342.866,143.506 341.199,143.34 339.5,143.5C 339.5,155.5 339.5,167.5 339.5,179.5C 337.533,179.261 335.699,179.594 334,180.5C 334.14,178.149 334.64,175.816 335.5,173.5C 335.666,163.161 335.5,152.828 335,142.5C 333.556,140.845 331.722,140.178 329.5,140.5C 329.5,137.167 329.5,133.833 329.5,130.5C 331.903,130.552 334.236,130.219 336.5,129.5 Z"/></g>
<g><path style="opacity:0.986" fill="#393d45" d="M 382.5,132.5 C 383.85,136.359 385.183,139.859 386.5,143C 385.167,143.667 383.833,143.667 382.5,143C 381.377,141.956 380.044,141.29 378.5,141C 379.167,140.667 379.833,140.333 380.5,140C 377.551,139.011 374.885,138.177 372.5,137.5C 371.702,137.957 371.369,138.624 371.5,139.5C 369.457,140.579 368.124,142.246 367.5,144.5C 367.389,145.117 367.056,145.617 366.5,146C 367.729,147.529 369.229,148.696 371,149.5C 371.974,147.122 372.641,147.456 373,150.5C 375.93,148.834 378.93,147.168 382,145.5C 386.737,146.147 388.237,148.647 386.5,153C 387.094,153.464 387.761,153.631 388.5,153.5C 381.905,155.302 374.905,156.135 367.5,156C 369.585,160.547 372.919,162.047 377.5,160.5C 379.744,161.612 379.744,163.112 377.5,165C 374.096,165.149 371.096,163.982 368.5,161.5C 367.702,161.957 367.369,162.624 367.5,163.5C 365.245,162.352 363.412,160.686 362,158.5C 361.829,153.467 361.329,148.467 360.5,143.5C 359.522,143.023 358.689,142.357 358,141.5C 357.329,142.252 356.496,142.586 355.5,142.5C 358.776,131.42 366.109,127.253 377.5,130C 379.491,130.374 381.158,131.207 382.5,132.5 Z"/></g>
<g><path style="opacity:1" fill="#383c44" d="M 427.5,140.5 C 427.054,148.353 423.054,151.02 415.5,148.5C 414.885,145.961 414.218,143.461 413.5,141C 411.251,140.137 409.418,140.637 408,142.5C 407.149,148.253 407.483,153.92 409,159.5C 413.254,160.866 417.42,160.533 421.5,158.5C 425.327,159.819 426.827,162.486 426,166.5C 424.871,168.141 423.371,169.141 421.5,169.5C 420.238,169.093 418.905,168.76 417.5,168.5C 416.522,168.977 415.689,169.643 415,170.5C 410.686,169.366 406.519,168.533 402.5,168C 402.043,167.586 401.709,167.086 401.5,166.5C 402.776,165.355 404.109,165.355 405.5,166.5C 410.353,163.976 410.353,162.309 405.5,161.5C 405.66,159.801 405.494,158.134 405,156.5C 404.517,157.448 404.351,158.448 404.5,159.5C 403.5,159.5 402.5,159.5 401.5,159.5C 401.828,154.125 401.495,148.792 400.5,143.5C 399.692,145.423 399.192,147.423 399,149.5C 397.129,148.003 396.129,146.003 396,143.5C 395.329,142.748 394.496,142.414 393.5,142.5C 399.258,129.796 408.592,126.296 421.5,132C 424.395,134.322 426.395,137.155 427.5,140.5 Z"/></g>
<g><path style="opacity:1" fill="#383d46" d="M 565.5,135.5 C 565.672,136.492 565.338,137.158 564.5,137.5C 563.448,137.351 562.448,137.517 561.5,138C 562.956,138.423 563.456,139.256 563,140.5C 560.412,139.203 557.912,138.203 555.5,137.5C 554.167,138.5 552.833,139.5 551.5,140.5C 550.522,140.023 549.689,139.357 549,138.5C 548.323,140.689 547.156,141.022 545.5,139.5C 544.702,139.957 544.369,140.624 544.5,141.5C 543.662,141.158 543.328,140.492 543.5,139.5C 542.637,135.838 543.97,133.672 547.5,133C 551.5,132.333 555.5,132.333 559.5,133C 562.051,133.002 564.051,133.836 565.5,135.5 Z"/></g>
<g><path style="opacity:1" fill="#363a42" d="M 685.5,133.5 C 684.417,133.461 683.417,133.127 682.5,132.5C 682.089,133.262 681.923,134.262 682,135.5C 681.346,134.304 680.846,134.304 680.5,135.5C 682.93,137.253 685.264,138.42 687.5,139C 687.167,139.333 686.833,139.667 686.5,140C 688.434,146.211 689.101,152.711 688.5,159.5C 687.609,158.89 686.609,158.557 685.5,158.5C 686.615,153.25 686.781,147.917 686,142.5C 683.925,140.352 681.592,140.018 679,141.5C 677.172,145.772 676.672,150.106 677.5,154.5C 676.281,152.677 674.947,151.677 673.5,151.5C 678.075,146.773 677.408,143.273 671.5,141C 672.551,139.615 673.884,138.615 675.5,138C 674.616,136.28 673.283,135.114 671.5,134.5C 673.667,133.802 675.5,132.469 677,130.5C 680.254,130.838 683.088,131.838 685.5,133.5 Z"/></g>
<g><path style="opacity:0.999" fill="#383c44" d="M 267.5,171.5 C 267.611,170.883 267.944,170.383 268.5,170C 267.207,169.51 265.873,169.343 264.5,169.5C 264.245,159.807 264.578,150.14 265.5,140.5C 265.21,138.956 264.544,137.623 263.5,136.5C 264.328,135.585 265.328,134.919 266.5,134.5C 268.828,135.217 270.995,136.217 273,137.5C 274.03,137.164 274.53,136.497 274.5,135.5C 275.198,132.637 277.031,130.971 280,130.5C 283.157,129.363 286.323,129.363 289.5,130.5C 289.441,134.736 288.441,138.736 286.5,142.5C 284.925,143.446 283.258,143.446 281.5,142.5C 279.945,142.722 278.611,143.389 277.5,144.5C 276.668,153.148 276.168,161.814 276,170.5C 273.281,171.444 270.448,171.777 267.5,171.5 Z"/></g>
<g><path style="opacity:0.751" fill="#35383e" d="M 274.5,135.5 C 274.53,136.497 274.03,137.164 273,137.5C 270.995,136.217 268.828,135.217 266.5,134.5C 265.328,134.919 264.328,135.585 263.5,136.5C 264.544,137.623 265.21,138.956 265.5,140.5C 264.578,150.14 264.245,159.807 264.5,169.5C 265.873,169.343 267.207,169.51 268.5,170C 267.944,170.383 267.611,170.883 267.5,171.5C 265.856,171.714 264.356,171.38 263,170.5C 262.667,161.167 262.333,151.833 262,142.5C 258.225,137.27 259.058,132.936 264.5,129.5C 268.487,130.49 271.82,132.49 274.5,135.5 Z"/></g>
<g><path style="opacity:1" fill="#373d45" d="M 300.5,135.5 C 301.097,135.735 301.43,136.235 301.5,137C 300.38,138.737 299.38,140.571 298.5,142.5C 299.146,148.365 299.813,154.198 300.5,160C 299.663,161.011 299.33,162.178 299.5,163.5C 300.959,163.433 302.292,163.766 303.5,164.5C 304.071,165.973 304.071,167.64 303.5,169.5C 298.813,167.226 294.98,163.893 292,159.5C 291.161,154.079 291.494,148.746 293,143.5C 295.2,142.452 295.7,140.952 294.5,139C 296.159,137.159 298.159,135.992 300.5,135.5 Z"/></g>
<g><path style="opacity:1" fill="#383b44" d="M 311.5,141.5 C 308.991,139.843 306.825,140.176 305,142.5C 302.971,148.553 303.138,154.553 305.5,160.5C 307.135,161.681 308.802,161.681 310.5,160.5C 312.243,155.673 312.91,150.673 312.5,145.5C 313.167,145.5 313.833,145.5 314.5,145.5C 315.249,146.531 315.915,147.698 316.5,149C 314.86,151.776 315.527,153.776 318.5,155C 317.944,155.383 317.611,155.883 317.5,156.5C 316.883,156.389 316.383,156.056 316,155.5C 314.498,158.018 312.998,160.518 311.5,163C 309.671,163.273 308.171,164.107 307,165.5C 306,164.833 305,164.167 304,163.5C 303.601,163.728 303.435,164.062 303.5,164.5C 302.292,163.766 300.959,163.433 299.5,163.5C 299.33,162.178 299.663,161.011 300.5,160C 299.813,154.198 299.146,148.365 298.5,142.5C 299.38,140.571 300.38,138.737 301.5,137C 301.43,136.235 301.097,135.735 300.5,135.5C 301.091,134.849 301.757,134.182 302.5,133.5C 301.196,131.984 301.696,131.318 304,131.5C 306.21,132.022 308.377,132.688 310.5,133.5C 313.095,132.763 315.762,132.763 318.5,133.5C 318.5,134.833 318.5,136.167 318.5,137.5C 316.339,137.509 315.006,138.176 314.5,139.5C 312.065,137.721 311.065,138.387 311.5,141.5 Z"/></g>
<g><path style="opacity:1" fill="#373b41" d="M 326.5,157.5 C 324.618,155.761 323.285,153.594 322.5,151C 324.826,148.518 324.493,146.184 321.5,144C 323.009,142.326 323.676,140.66 323.5,139C 322.584,138.626 321.75,138.126 321,137.5C 319.113,139.026 318.113,141.026 318,143.5C 316.698,144.085 315.531,144.751 314.5,145.5C 313.833,145.5 313.167,145.5 312.5,145.5C 312.167,144.167 311.833,142.833 311.5,141.5C 311.065,138.387 312.065,137.721 314.5,139.5C 315.006,138.176 316.339,137.509 318.5,137.5C 318.5,136.167 318.5,134.833 318.5,133.5C 315.762,132.763 313.095,132.763 310.5,133.5C 308.377,132.688 306.21,132.022 304,131.5C 301.696,131.318 301.196,131.984 302.5,133.5C 301.757,134.182 301.091,134.849 300.5,135.5C 298.159,135.992 296.159,137.159 294.5,139C 295.7,140.952 295.2,142.452 293,143.5C 291.494,148.746 291.161,154.079 292,159.5C 294.98,163.893 298.813,167.226 303.5,169.5C 304.338,169.842 304.672,170.508 304.5,171.5C 296.704,170.54 291.871,166.207 290,158.5C 287.428,148.114 289.928,139.281 297.5,132C 319.603,126.076 329.27,134.576 326.5,157.5 Z"/></g>
<g><path style="opacity:0.993" fill="#30333a" d="M 481.5,141.5 C 481.368,150.188 481.202,158.855 481,167.5C 482.079,169.394 483.413,169.727 485,168.5C 485.333,169.167 485.667,169.833 486,170.5C 487.299,170.034 488.799,170.034 490.5,170.5C 490.168,161.475 490.502,152.475 491.5,143.5C 492.736,142.754 494.07,142.421 495.5,142.5C 493.895,151.595 492.895,160.929 492.5,170.5C 488.167,171.833 483.833,171.833 479.5,170.5C 478.689,159.392 478.355,146.725 478.5,132.5C 479.825,133.953 480.658,133.619 481,131.5C 481.498,134.817 481.665,138.15 481.5,141.5 Z"/></g>
<g><path style="opacity:0.999" fill="#393d45" d="M 495.5,137.5 C 499.725,137.889 502.225,140.222 503,144.5C 503.333,149.5 503.667,154.5 504,159.5C 504.5,160 505,160.5 505.5,161C 503.256,163.376 502.923,166.043 504.5,169C 503.041,168.645 501.707,168.811 500.5,169.5C 500.666,161.16 500.5,152.827 500,144.5C 498.951,142.893 497.451,142.227 495.5,142.5C 494.07,142.421 492.736,142.754 491.5,143.5C 490.502,152.475 490.168,161.475 490.5,170.5C 488.799,170.034 487.299,170.034 486,170.5C 485.667,169.833 485.333,169.167 485,168.5C 483.413,169.727 482.079,169.394 481,167.5C 481.202,158.855 481.368,150.188 481.5,141.5C 483.137,146.774 484.137,152.441 484.5,158.5C 485.167,158.833 485.833,159.167 486.5,159.5C 487.833,153.5 487.833,147.5 486.5,141.5C 485.808,142.025 485.308,142.692 485,143.5C 484.221,141.094 485.054,139.427 487.5,138.5C 484.895,136.584 485.395,135.584 489,135.5C 491.442,135.482 493.608,136.149 495.5,137.5 Z"/></g>
<g><path style="opacity:0.948" fill="#383c42" d="M 594.5,133.5 C 593.185,135.976 592.018,135.642 591,132.5C 585.346,133.633 584.18,136.966 587.5,142.5C 586.228,146.817 585.562,151.317 585.5,156C 585.667,160.167 585.833,164.333 586,168.5C 588.676,169.572 591.009,168.905 593,166.5C 593.187,159.919 593.687,153.419 594.5,147C 593.809,145.933 593.309,144.766 593,143.5C 592.667,143.833 592.333,144.167 592,144.5C 591.83,150.528 591.33,156.528 590.5,162.5C 589.808,161.975 589.308,161.308 589,160.5C 588.333,154.167 588.333,147.833 589,141.5C 589.414,141.957 589.914,142.291 590.5,142.5C 591.288,141.23 592.288,140.23 593.5,139.5C 594.735,139.721 595.735,140.388 596.5,141.5C 597.183,141.137 597.85,140.804 598.5,140.5C 598.833,141.167 599.167,141.833 599.5,142.5C 598.85,142.804 598.183,143.137 597.5,143.5C 596.668,152.482 596.168,161.482 596,170.5C 591.667,171.833 587.333,171.833 583,170.5C 582.333,157.5 582.333,144.5 583,131.5C 587.402,128.582 591.236,129.249 594.5,133.5 Z"/></g>
<g><path style="opacity:1" fill="#373d46" d="M 600.5,131.5 C 601.303,132.423 601.47,133.423 601,134.5C 600.667,134.167 600.333,133.833 600,133.5C 598.093,136.45 595.593,137.616 592.5,137C 593.252,137.671 593.586,138.504 593.5,139.5C 592.288,140.23 591.288,141.23 590.5,142.5C 589.914,142.291 589.414,141.957 589,141.5C 588.333,147.833 588.333,154.167 589,160.5C 589.308,161.308 589.808,161.975 590.5,162.5C 591.33,156.528 591.83,150.528 592,144.5C 592.333,144.167 592.667,143.833 593,143.5C 593.309,144.766 593.809,145.933 594.5,147C 593.687,153.419 593.187,159.919 593,166.5C 591.009,168.905 588.676,169.572 586,168.5C 585.833,164.333 585.667,160.167 585.5,156C 585.562,151.317 586.228,146.817 587.5,142.5C 584.18,136.966 585.346,133.633 591,132.5C 592.018,135.642 593.185,135.976 594.5,133.5C 596.5,132.833 598.5,132.167 600.5,131.5 Z"/></g>
<g><path style="opacity:1" fill="#383d47" d="M 728.5,134.5 C 727.5,134.5 726.5,134.5 725.5,134.5C 725.5,135.5 725.5,136.5 725.5,137.5C 723.073,137.523 720.74,138.023 718.5,139C 717.12,140.925 715.62,142.759 714,144.5C 713.946,147.861 712.946,150.861 711,153.5C 710.03,153.376 709.197,153.376 708.5,153.5C 705.459,140.671 710.626,133.338 724,131.5C 725,132.167 726,132.833 727,133.5C 728.107,132.288 728.607,132.621 728.5,134.5 Z"/></g>
<g><path style="opacity:1" fill="#383c45" d="M 728.5,134.5 C 730.414,135.185 732.414,135.685 734.5,136C 736.041,137.77 737.375,138.937 738.5,139.5C 739.837,141.349 740.503,143.516 740.5,146C 739.893,149.143 739.559,152.31 739.5,155.5C 732.416,154.874 725.75,155.541 719.5,157.5C 718.817,159.176 717.483,159.843 715.5,159.5C 714.706,154.326 714.873,149.326 716,144.5C 716.333,145.5 716.667,146.5 717,147.5C 720.955,147.371 725.122,147.371 729.5,147.5C 730.371,144.728 730.371,142.062 729.5,139.5C 727.801,139.473 726.467,138.806 725.5,137.5C 725.5,136.5 725.5,135.5 725.5,134.5C 726.5,134.5 727.5,134.5 728.5,134.5 Z"/></g>
<g><path style="opacity:0.998" fill="#383c44" d="M 764.5,142.5 C 763.312,143.364 762.145,144.364 761,145.5C 760.667,153.833 760.333,162.167 760,170.5C 759.329,171.252 758.496,171.586 757.5,171.5C 758.34,167.089 757.173,163.423 754,160.5C 753.501,154.843 753.334,149.176 753.5,143.5C 752.167,143.5 750.833,143.5 749.5,143.5C 749.334,151.507 749.5,159.507 750,167.5C 752.072,169.05 754.239,170.383 756.5,171.5C 753.223,171.784 750.057,171.451 747,170.5C 746.809,160.09 746.309,149.757 745.5,139.5C 746.376,139.631 747.043,139.298 747.5,138.5C 746.674,137.549 746.508,136.549 747,135.5C 748.512,134.743 749.846,133.743 751,132.5C 752.943,135.465 755.61,137.131 759,137.5C 762.485,135.662 766.152,133.995 770,132.5C 772.408,135.732 771.242,138.065 766.5,139.5C 763.429,138.267 762.762,139.267 764.5,142.5 Z"/></g>
<g><path style="opacity:0.004" fill="#fefffe" d="M 20.5,136.5 C 21.8333,137.167 21.8333,137.167 20.5,136.5 Z"/></g>
<g><path style="opacity:0.89" fill="#383c42" d="M 447.5,130.5 C 456.656,128.151 459.656,131.318 456.5,140C 453.518,140.498 450.518,140.665 447.5,140.5C 447.334,146.842 447.5,153.175 448,159.5C 450.381,160.435 452.881,160.768 455.5,160.5C 456.207,163.786 456.54,167.119 456.5,170.5C 455.167,170.5 453.833,170.5 452.5,170.5C 453.623,168.482 453.623,166.482 452.5,164.5C 447.86,164.432 444.36,162.432 442,158.5C 441.501,153.511 441.334,148.511 441.5,143.5C 442.833,143.5 444.167,143.5 445.5,143.5C 445.5,139.833 445.5,136.167 445.5,132.5C 446.833,132.5 447.5,131.833 447.5,130.5 Z"/></g>
<g><path style="opacity:1" fill="#393d46" d="M 685.5,133.5 C 686.885,134.574 688.051,135.907 689,137.5C 690.237,135.896 691.403,134.229 692.5,132.5C 693.912,133.806 695.579,134.64 697.5,135C 696.272,136.49 696.272,137.99 697.5,139.5C 697.586,140.496 697.252,141.329 696.5,142C 697.167,145.667 697.833,149.333 698.5,153C 698.021,156.915 697.021,160.915 695.5,165C 698.328,170.363 697.662,174.863 693.5,178.5C 693.5,177.5 693.5,176.5 693.5,175.5C 692.167,175.5 690.833,175.5 689.5,175.5C 689.782,170.073 689.449,164.74 688.5,159.5C 689.101,152.711 688.434,146.211 686.5,140C 686.833,139.667 687.167,139.333 687.5,139C 685.264,138.42 682.93,137.253 680.5,135.5C 680.846,134.304 681.346,134.304 682,135.5C 681.923,134.262 682.089,133.262 682.5,132.5C 683.417,133.127 684.417,133.461 685.5,133.5 Z"/></g>
<g><path style="opacity:1" fill="#03acb2" d="M 182.5,161.5 C 181.842,162.398 181.176,163.398 180.5,164.5C 178.371,162.344 176.038,160.677 173.5,159.5C 173.046,162.14 171.879,164.473 170,166.5C 169.005,165.934 168.172,165.267 167.5,164.5C 167.557,163.391 167.89,162.391 168.5,161.5C 169.496,161.586 170.329,161.252 171,160.5C 172.113,159.24 172.28,158.073 171.5,157C 172.744,156.544 173.577,157.044 174,158.5C 174.309,157.234 174.809,156.067 175.5,155C 174.376,154.751 173.376,154.251 172.5,153.5C 172.817,149.059 173.817,144.892 175.5,141C 175.167,140.667 174.833,140.333 174.5,140C 175.91,139.632 176.91,138.799 177.5,137.5C 175.833,136.833 174.167,136.167 172.5,135.5C 173.154,133.885 173.654,132.218 174,130.5C 174.98,132.259 175.647,133.926 176,135.5C 177.229,133.053 178.729,132.887 180.5,135C 179.756,142.35 179.589,149.85 180,157.5C 180.333,156.833 180.667,156.167 181,155.5C 182.319,157.25 182.819,159.25 182.5,161.5 Z"/></g>
<g><path style="opacity:1" fill="#353940" d="M 526.5,148.5 C 525.5,148.5 524.5,148.5 523.5,148.5C 524.103,153.619 523.436,158.285 521.5,162.5C 521.666,156.491 521.499,150.491 521,144.5C 518.827,142.099 516.494,142.099 514,144.5C 513.5,153.494 513.334,162.494 513.5,171.5C 512.167,171.5 510.833,171.5 509.5,171.5C 511.382,162.359 512.049,153.026 511.5,143.5C 509.897,143.688 508.563,143.188 507.5,142C 509.715,141.31 511.882,140.476 514,139.5C 515.107,139.585 516.107,139.919 517,140.5C 517.419,139.328 518.085,138.328 519,137.5C 522.387,139.943 523.887,143.276 523.5,147.5C 524.791,147.263 525.791,147.596 526.5,148.5 Z"/></g>
<g><path style="opacity:0.776" fill="#363a3f" d="M 764.5,142.5 C 762.762,139.267 763.429,138.267 766.5,139.5C 771.242,138.065 772.408,135.732 770,132.5C 766.152,133.995 762.485,135.662 759,137.5C 755.61,137.131 752.943,135.465 751,132.5C 749.846,133.743 748.512,134.743 747,135.5C 746.508,136.549 746.674,137.549 747.5,138.5C 747.043,139.298 746.376,139.631 745.5,139.5C 743.543,135.664 744.543,132.331 748.5,129.5C 752.464,130.481 755.797,132.481 758.5,135.5C 760.497,132.043 763.997,130.043 769,129.5C 771.021,129.673 772.854,130.34 774.5,131.5C 773.731,134.51 772.897,137.51 772,140.5C 771.632,141.91 770.799,142.91 769.5,143.5C 767.929,142.691 766.262,142.357 764.5,142.5 Z"/></g>
<g><path style="opacity:0.937" fill="#35393f" d="M 617.5,151.5 C 617.095,157.148 617.762,162.648 619.5,168C 614.915,172.501 610.082,172.667 605,168.5C 604.667,160.5 604.333,152.5 604,144.5C 602.951,142.893 601.451,142.227 599.5,142.5C 599.167,141.833 598.833,141.167 598.5,140.5C 603.039,138.942 606.706,139.608 609.5,142.5C 608.095,144.655 606.762,146.821 605.5,149C 606.126,149.75 606.626,150.584 607,151.5C 607.499,156.823 607.666,162.156 607.5,167.5C 609.451,167.227 610.951,167.893 612,169.5C 612.333,169.167 612.667,168.833 613,168.5C 613.957,170.709 615.124,170.543 616.5,168C 615.366,166.984 615.699,166.317 617.5,166C 616.316,164.82 615.649,163.32 615.5,161.5C 615.754,157.95 616.421,154.617 617.5,151.5 Z"/></g>
<g><path style="opacity:1" fill="#383c41" d="M 242.5,140.5 C 242.424,142.304 242.757,144.304 243.5,146.5C 243.068,147.71 242.401,148.71 241.5,149.5C 241.846,146.398 241.179,143.565 239.5,141C 237.433,140.464 235.599,140.964 234,142.5C 233.809,148.083 233.309,153.583 232.5,159C 236.167,162.775 239,162.275 241,157.5C 241.497,155.19 241.663,152.857 241.5,150.5C 244.317,152.867 244.65,155.367 242.5,158C 243.233,159.766 243.567,161.599 243.5,163.5C 242.167,163.5 240.833,163.5 239.5,163.5C 238.122,162.766 236.622,162.099 235,161.5C 233.127,162.089 231.46,161.422 230,159.5C 229.6,153.798 229.434,148.298 229.5,143C 230.469,141.242 231.636,140.742 233,141.5C 235.734,140.638 235.901,139.805 233.5,139C 235.101,138.727 236.601,138.227 238,137.5C 239.4,138.748 240.9,139.748 242.5,140.5 Z"/></g>
<g><path style="opacity:1" fill="#363a40" d="M 382.5,132.5 C 385.994,134.5 388.16,137.5 389,141.5C 389.812,145.689 389.645,149.689 388.5,153.5C 387.761,153.631 387.094,153.464 386.5,153C 388.237,148.647 386.737,146.147 382,145.5C 378.93,147.168 375.93,148.834 373,150.5C 372.641,147.456 371.974,147.122 371,149.5C 369.229,148.696 367.729,147.529 366.5,146C 367.056,145.617 367.389,145.117 367.5,144.5C 370.391,145.403 373.391,145.736 376.5,145.5C 377.024,141.69 375.357,139.69 371.5,139.5C 371.369,138.624 371.702,137.957 372.5,137.5C 374.885,138.177 377.551,139.011 380.5,140C 379.833,140.333 379.167,140.667 378.5,141C 380.044,141.29 381.377,141.956 382.5,143C 383.833,143.667 385.167,143.667 386.5,143C 385.183,139.859 383.85,136.359 382.5,132.5 Z"/></g>
<g><path style="opacity:0.986" fill="#393d45" d="M 237.5,129.5 C 244.387,128.286 249.553,130.619 253,136.5C 256.48,145.705 256.314,154.705 252.5,163.5C 251.001,162.322 250.001,160.655 249.5,158.5C 248.914,158.709 248.414,159.043 248,159.5C 247.564,153.648 246.564,147.981 245,142.5C 244.79,144.058 244.29,145.391 243.5,146.5C 242.757,144.304 242.424,142.304 242.5,140.5C 245.44,140.541 248.44,140.041 251.5,139C 249.606,137.899 248.939,136.566 249.5,135C 247.17,133.477 244.836,132.977 242.5,133.5C 241.021,131.221 239.354,129.888 237.5,129.5 Z"/></g>
<g><path style="opacity:1" fill="#363c44" d="M 347.5,177.5 C 345.203,184.003 340.537,187.67 333.5,188.5C 330.476,186.939 328.809,184.439 328.5,181C 331.039,178.63 333.372,176.13 335.5,173.5C 334.64,175.816 334.14,178.149 334,180.5C 335.699,179.594 337.533,179.261 339.5,179.5C 339.5,167.5 339.5,155.5 339.5,143.5C 341.199,143.34 342.866,143.506 344.5,144C 344.353,145.974 344.019,147.974 343.5,150C 344.167,150.333 344.833,150.667 345.5,151C 343.196,156.908 342.863,163.074 344.5,169.5C 344.267,173.334 343.267,176.834 341.5,180C 342.5,180.667 343.5,180.667 344.5,180C 345.373,178.955 346.373,178.122 347.5,177.5 Z"/></g>
<g><path style="opacity:0.985" fill="#393c46" d="M 367.5,163.5 C 368.141,164.482 368.807,165.482 369.5,166.5C 368.372,167.262 367.205,167.929 366,168.5C 364.249,166.082 362.249,164.749 360,164.5C 359.517,165.448 359.351,166.448 359.5,167.5C 357.254,165.351 355.754,162.684 355,159.5C 354.215,153.751 354.382,148.084 355.5,142.5C 356.496,142.586 357.329,142.252 358,141.5C 358.689,142.357 359.522,143.023 360.5,143.5C 361.329,148.467 361.829,153.467 362,158.5C 363.412,160.686 365.245,162.352 367.5,163.5 Z"/></g>
<g><path style="opacity:1" fill="#373d46" d="M 441.5,143.5 C 441.334,148.511 441.501,153.511 442,158.5C 444.36,162.432 447.86,164.432 452.5,164.5C 453.623,166.482 453.623,168.482 452.5,170.5C 448.966,168.558 445.299,167.891 441.5,168.5C 438.605,166.593 437.272,163.926 437.5,160.5C 438.492,155.24 439.326,149.907 440,144.5C 440.383,143.944 440.883,143.611 441.5,143.5 Z"/></g>
<g><path style="opacity:1" fill="#383d44" d="M 505.5,130.5 C 502.917,130.195 500.25,130.861 497.5,132.5C 496.05,133.85 495.383,135.516 495.5,137.5C 493.608,136.149 491.442,135.482 489,135.5C 485.395,135.584 484.895,136.584 487.5,138.5C 485.054,139.427 484.221,141.094 485,143.5C 485.308,142.692 485.808,142.025 486.5,141.5C 487.833,147.5 487.833,153.5 486.5,159.5C 485.833,159.167 485.167,158.833 484.5,158.5C 484.137,152.441 483.137,146.774 481.5,141.5C 481.665,138.15 481.498,134.817 481,131.5C 480.658,133.619 479.825,133.953 478.5,132.5C 479.512,130.124 481.345,129.124 484,129.5C 487.408,129.621 490.242,130.954 492.5,133.5C 494.833,132.333 497.167,131.167 499.5,130C 501.712,129.211 503.712,129.378 505.5,130.5 Z"/></g>
<g><path style="opacity:1" fill="#383c44" d="M 521.5,162.5 C 523.436,158.285 524.103,153.619 523.5,148.5C 524.5,148.5 525.5,148.5 526.5,148.5C 527.043,148.44 527.376,148.107 527.5,147.5C 526.624,146.749 525.624,146.249 524.5,146C 524.962,144.278 525.128,142.445 525,140.5C 525.414,140.043 525.914,139.709 526.5,139.5C 527.848,141.461 529.181,141.628 530.5,140C 528.109,138.691 528.109,137.691 530.5,137C 528.697,136.363 527.364,135.197 526.5,133.5C 521.718,131.255 518.552,132.588 517,137.5C 516.641,134.456 515.974,134.122 515,136.5C 514.51,135.207 514.343,133.873 514.5,132.5C 520.672,128.174 526.506,128.507 532,133.5C 532.862,135.087 533.529,136.754 534,138.5C 534.333,146.833 534.667,155.167 535,163.5C 537.686,167.212 536.853,169.712 532.5,171C 525.001,172.931 521.334,170.098 521.5,162.5 Z"/></g>
<g><path style="opacity:1" fill="#393c47" d="M 565.5,168.5 C 565.167,168.5 564.833,168.5 564.5,168.5C 563.081,167.549 561.415,167.216 559.5,167.5C 559.5,166.5 559.5,165.5 559.5,164.5C 559.415,163.005 560.081,162.005 561.5,161.5C 562.768,162.428 564.101,162.595 565.5,162C 565.461,159.703 565.128,157.37 564.5,155C 565.288,151.924 565.788,148.758 566,145.5C 566.5,145 567,144.5 567.5,144C 566.999,141.938 565.999,139.771 564.5,137.5C 565.338,137.158 565.672,136.492 565.5,135.5C 566.15,135.196 566.817,134.863 567.5,134.5C 569.329,137.159 571.329,139.659 573.5,142C 572.472,150.787 572.305,159.621 573,168.5C 570.505,168.419 568.005,168.419 565.5,168.5 Z"/></g>
<g><path style="opacity:1" fill="#383d46" d="M 671.5,134.5 C 673.283,135.114 674.616,136.28 675.5,138C 673.884,138.615 672.551,139.615 671.5,141C 677.408,143.273 678.075,146.773 673.5,151.5C 674.947,151.677 676.281,152.677 677.5,154.5C 677.368,158.032 679.034,160.032 682.5,160.5C 682.389,161.117 682.056,161.617 681.5,162C 684.507,162.553 686.507,164.22 687.5,167C 686.863,168.713 685.863,168.879 684.5,167.5C 680.959,170.08 677.459,170.08 674,167.5C 673.667,167.833 673.333,168.167 673,168.5C 672.021,166.68 670.521,165.513 668.5,165C 669.167,164.667 669.833,164.333 670.5,164C 668.919,163.293 667.419,162.46 666,161.5C 665.601,161.728 665.435,162.062 665.5,162.5C 664.662,162.158 664.328,161.492 664.5,160.5C 665.473,160.013 666.473,159.513 667.5,159C 665.962,156.072 665.296,152.906 665.5,149.5C 665.335,145.084 666.668,141.251 669.5,138C 668.463,136.149 669.13,134.983 671.5,134.5 Z"/></g>
<g><path style="opacity:1" fill="#383d46" d="M 326.5,157.5 C 326.5,157.833 326.5,158.167 326.5,158.5C 325.504,158.586 324.671,158.252 324,157.5C 323.333,160.167 322.667,160.167 322,157.5C 320.507,159.56 318.674,159.893 316.5,158.5C 317.025,157.808 317.692,157.308 318.5,157C 318.272,156.601 317.938,156.435 317.5,156.5C 317.611,155.883 317.944,155.383 318.5,155C 315.527,153.776 314.86,151.776 316.5,149C 315.915,147.698 315.249,146.531 314.5,145.5C 315.531,144.751 316.698,144.085 318,143.5C 318.113,141.026 319.113,139.026 321,137.5C 321.75,138.126 322.584,138.626 323.5,139C 323.676,140.66 323.009,142.326 321.5,144C 324.493,146.184 324.826,148.518 322.5,151C 323.285,153.594 324.618,155.761 326.5,157.5 Z"/></g>
<g><path style="opacity:0.004" fill="#fefffe" d="M 41.5,148.5 C 42.8333,149.167 42.8333,149.167 41.5,148.5 Z"/></g>
<g><path style="opacity:0.004" fill="#fefffe" d="M 50.5,148.5 C 51.8333,149.167 51.8333,149.167 50.5,148.5 Z"/></g>
<g><path style="opacity:0.698" fill="#393c42" d="M 336.5,129.5 C 341.541,129.368 345.374,131.368 348,135.5C 348.827,149.006 348.66,162.34 347.5,175.5C 346.67,165.008 346.17,154.341 346,143.5C 344.252,141.946 344.085,140.28 345.5,138.5C 345.027,134.82 343.194,133.486 340,134.5C 338.829,133.66 337.662,132.827 336.5,132C 337.167,131.667 337.833,131.333 338.5,131C 337.584,130.722 336.918,130.222 336.5,129.5 Z"/></g>
<g><path style="opacity:0.004" fill="#fefffe" d="M 854.5,149.5 C 855.833,150.167 855.833,150.167 854.5,149.5 Z"/></g>
<g><path style="opacity:0.004" fill="#fefffe" d="M 257.5,150.5 C 258.833,151.167 258.833,151.167 257.5,150.5 Z"/></g>
<g><path style="opacity:1" fill="#383b42" d="M 564.5,137.5 C 565.999,139.771 566.999,141.938 567.5,144C 567,144.5 566.5,145 566,145.5C 565.788,148.758 565.288,151.924 564.5,155C 565.128,157.37 565.461,159.703 565.5,162C 564.101,162.595 562.768,162.428 561.5,161.5C 560.081,162.005 559.415,163.005 559.5,164.5C 557.011,165.745 555.678,164.745 555.5,161.5C 560.323,161.673 562.323,159.339 561.5,154.5C 559.833,154.5 558.167,154.5 556.5,154.5C 556.67,153.178 556.337,152.011 555.5,151C 556.308,150.692 556.975,150.192 557.5,149.5C 554.306,146.905 551.139,146.905 548,149.5C 547.536,148.906 547.369,148.239 547.5,147.5C 551.94,145.802 556.607,144.469 561.5,143.5C 560.588,141.257 558.922,140.257 556.5,140.5C 553.317,141.087 550.151,141.754 547,142.5C 545.93,142.472 545.097,142.139 544.5,141.5C 544.369,140.624 544.702,139.957 545.5,139.5C 547.156,141.022 548.323,140.689 549,138.5C 549.689,139.357 550.522,140.023 551.5,140.5C 552.833,139.5 554.167,138.5 555.5,137.5C 557.912,138.203 560.412,139.203 563,140.5C 563.456,139.256 562.956,138.423 561.5,138C 562.448,137.517 563.448,137.351 564.5,137.5 Z"/></g>
<g><path style="opacity:0.897" fill="#363940" d="M 641.5,144.5 C 640.725,148.182 642.059,150.682 645.5,152C 644.833,152.333 644.167,152.667 643.5,153C 645.513,153.68 646.846,155.013 647.5,157C 645.998,159.516 644.498,162.016 643,164.5C 641.961,163.756 641.461,162.756 641.5,161.5C 644.092,159.964 645.092,157.631 644.5,154.5C 639.884,153.342 637.217,155.008 636.5,159.5C 636.167,160.5 635.5,161.167 634.5,161.5C 633.761,161.631 633.094,161.464 632.5,161C 634.218,157.575 636.218,154.241 638.5,151C 635.97,149.578 633.303,149.245 630.5,150C 629.166,152.087 627.333,153.587 625,154.5C 624.79,155.803 624.957,157.136 625.5,158.5C 625.547,160.038 624.88,161.038 623.5,161.5C 623.506,149.832 629.506,144.165 641.5,144.5 Z M 641.5,161.5 C 639.446,161.635 637.779,160.968 636.5,159.5C 637.217,155.008 639.884,153.342 644.5,154.5C 645.092,157.631 644.092,159.964 641.5,161.5 Z"/></g>
<g><path style="opacity:1" fill="#363b43" d="M 393.5,142.5 C 394.496,142.414 395.329,142.748 396,143.5C 396.129,146.003 397.129,148.003 399,149.5C 399.192,147.423 399.692,145.423 400.5,143.5C 401.495,148.792 401.828,154.125 401.5,159.5C 402.5,159.5 403.5,159.5 404.5,159.5C 404.351,158.448 404.517,157.448 405,156.5C 405.494,158.134 405.66,159.801 405.5,161.5C 410.353,162.309 410.353,163.976 405.5,166.5C 404.109,165.355 402.776,165.355 401.5,166.5C 401.709,167.086 402.043,167.586 402.5,168C 406.519,168.533 410.686,169.366 415,170.5C 415.689,169.643 416.522,168.977 417.5,168.5C 418.905,168.76 420.238,169.093 421.5,169.5C 413.67,173.531 406.003,173.031 398.5,168C 396.348,165.531 394.848,162.698 394,159.5C 393.501,153.843 393.334,148.176 393.5,142.5 Z"/></g>
<g><path style="opacity:1" fill="#383b45" d="M 547.5,147.5 C 547.369,148.239 547.536,148.906 548,149.5C 551.139,146.905 554.306,146.905 557.5,149.5C 556.975,150.192 556.308,150.692 555.5,151C 556.337,152.011 556.67,153.178 556.5,154.5C 555.094,154.973 554.427,155.973 554.5,157.5C 552.29,156.417 550.123,156.417 548,157.5C 546.635,157.156 545.468,156.489 544.5,155.5C 544.218,158.057 544.051,160.723 544,163.5C 543.044,160.353 541.877,157.353 540.5,154.5C 541.855,151.145 544.189,148.811 547.5,147.5 Z"/></g>
<g><path style="opacity:1" fill="#383c44" d="M 725.5,137.5 C 726.467,138.806 727.801,139.473 729.5,139.5C 730.371,142.062 730.371,144.728 729.5,147.5C 725.122,147.371 720.955,147.371 717,147.5C 716.667,146.5 716.333,145.5 716,144.5C 714.873,149.326 714.706,154.326 715.5,159.5C 717.483,159.843 718.817,159.176 719.5,157.5C 720.744,159.8 722.744,161.134 725.5,161.5C 728.82,160.703 732.154,160.036 735.5,159.5C 734.531,160.309 733.698,161.309 733,162.5C 730.679,161.639 729.513,162.639 729.5,165.5C 727.08,165.708 724.747,165.374 722.5,164.5C 719.721,165.673 719.054,167.507 720.5,170C 718.018,170.677 716.185,169.844 715,167.5C 714.667,167.833 714.333,168.167 714,168.5C 712.67,167.418 711.17,166.751 709.5,166.5C 709.801,162.753 709.134,159.253 707.5,156C 707.528,154.93 707.861,154.097 708.5,153.5C 709.197,153.376 710.03,153.376 711,153.5C 712.946,150.861 713.946,147.861 714,144.5C 715.62,142.759 717.12,140.925 718.5,139C 720.74,138.023 723.073,137.523 725.5,137.5 Z M 721.5,139.5 C 725.833,139.167 727.833,141.167 727.5,145.5C 724.833,145.5 722.167,145.5 719.5,145.5C 719.253,143.142 719.919,141.142 721.5,139.5 Z"/></g>
<g><path style="opacity:1" fill="#373d46" d="M 757.5,171.5 C 757.167,171.5 756.833,171.5 756.5,171.5C 754.239,170.383 752.072,169.05 750,167.5C 749.5,159.507 749.334,151.507 749.5,143.5C 750.833,143.5 752.167,143.5 753.5,143.5C 753.334,149.176 753.501,154.843 754,160.5C 757.173,163.423 758.34,167.089 757.5,171.5 Z"/></g>
<g><path style="opacity:0.004" fill="#000000" d="M 733.5,156.5 C 734.833,157.167 734.833,157.167 733.5,156.5 Z"/></g>
<g><path style="opacity:0.004" fill="#fefffe" d="M 143.5,157.5 C 144.833,158.167 144.833,158.167 143.5,157.5 Z"/></g>
<g><path style="opacity:1" fill="#383c46" d="M 252.5,163.5 C 252.5,164.167 252.167,164.5 251.5,164.5C 248.603,165.717 245.936,167.384 243.5,169.5C 241.176,169.123 240.509,168.123 241.5,166.5C 240.388,165.735 239.721,164.735 239.5,163.5C 240.833,163.5 242.167,163.5 243.5,163.5C 243.567,161.599 243.233,159.766 242.5,158C 244.65,155.367 244.317,152.867 241.5,150.5C 241.5,150.167 241.5,149.833 241.5,149.5C 242.401,148.71 243.068,147.71 243.5,146.5C 244.29,145.391 244.79,144.058 245,142.5C 246.564,147.981 247.564,153.648 248,159.5C 248.414,159.043 248.914,158.709 249.5,158.5C 250.001,160.655 251.001,162.322 252.5,163.5 Z"/></g>
<g><path style="opacity:1" fill="#373b44" d="M 317.5,156.5 C 317.938,156.435 318.272,156.601 318.5,157C 317.692,157.308 317.025,157.808 316.5,158.5C 318.674,159.893 320.507,159.56 322,157.5C 322.667,160.167 323.333,160.167 324,157.5C 324.671,158.252 325.504,158.586 326.5,158.5C 322.764,169.031 315.431,173.365 304.5,171.5C 304.672,170.508 304.338,169.842 303.5,169.5C 304.071,167.64 304.071,165.973 303.5,164.5C 303.435,164.062 303.601,163.728 304,163.5C 305,164.167 306,164.833 307,165.5C 308.171,164.107 309.671,163.273 311.5,163C 312.998,160.518 314.498,158.018 316,155.5C 316.383,156.056 316.883,156.389 317.5,156.5 Z"/></g>
<g><path style="opacity:1" fill="#363a42" d="M 540.5,154.5 C 541.877,157.353 543.044,160.353 544,163.5C 544.051,160.723 544.218,158.057 544.5,155.5C 545.468,156.489 546.635,157.156 548,157.5C 550.123,156.417 552.29,156.417 554.5,157.5C 553.557,159.001 553.891,160.335 555.5,161.5C 555.678,164.745 557.011,165.745 559.5,164.5C 559.5,165.5 559.5,166.5 559.5,167.5C 561.415,167.216 563.081,167.549 564.5,168.5C 558.457,172.762 552.124,173.262 545.5,170C 540.753,165.709 539.086,160.542 540.5,154.5 Z"/></g>
<g><path style="opacity:0.932" fill="#373a41" d="M 565.5,168.5 C 568.005,168.419 570.505,168.419 573,168.5C 572.305,159.621 572.472,150.787 573.5,142C 571.329,139.659 569.329,137.159 567.5,134.5C 566.817,134.863 566.15,135.196 565.5,135.5C 564.051,133.836 562.051,133.002 559.5,133C 555.5,132.333 551.5,132.333 547.5,133C 543.97,133.672 542.637,135.838 543.5,139.5C 542.694,138.003 542.028,136.336 541.5,134.5C 544.995,131.942 548.995,130.442 553.5,130C 561.136,128.105 567.636,129.939 573,135.5C 573.973,137.392 574.64,139.392 575,141.5C 575.333,148.5 575.667,155.5 576,162.5C 577.767,165.866 576.934,168.699 573.5,171C 570.291,171.652 567.625,170.818 565.5,168.5 Z"/></g>
<g><path style="opacity:0.004" fill="#fefffe" d="M 113.5,161.5 C 114.833,162.167 114.833,162.167 113.5,161.5 Z"/></g>
<g><path style="opacity:1" fill="#373b45" d="M 634.5,161.5 C 635.556,162.877 636.889,163.71 638.5,164C 637.376,164.249 636.376,164.749 635.5,165.5C 635.81,168.798 637.476,170.798 640.5,171.5C 631.595,173.551 625.928,170.217 623.5,161.5C 624.88,161.038 625.547,160.038 625.5,158.5C 624.957,157.136 624.79,155.803 625,154.5C 627.333,153.587 629.166,152.087 630.5,150C 633.303,149.245 635.97,149.578 638.5,151C 636.218,154.241 634.218,157.575 632.5,161C 633.094,161.464 633.761,161.631 634.5,161.5 Z"/></g>
<g><path style="opacity:0.004" fill="#fefffe" d="M 701.5,162.5 C 702.833,163.167 702.833,163.167 701.5,162.5 Z"/></g>
<g><path style="opacity:1" fill="#373a42" d="M 359.5,167.5 C 359.351,166.448 359.517,165.448 360,164.5C 362.249,164.749 364.249,166.082 366,168.5C 367.205,167.929 368.372,167.262 369.5,166.5C 368.807,165.482 368.141,164.482 367.5,163.5C 367.369,162.624 367.702,161.957 368.5,161.5C 371.096,163.982 374.096,165.149 377.5,165C 379.744,163.112 379.744,161.612 377.5,160.5C 384.721,157.577 388.221,159.91 388,167.5C 378.301,173.841 368.801,173.841 359.5,167.5 Z"/></g>
<g><path style="opacity:1" fill="#363a42" d="M 735.5,159.5 C 737.567,161.318 738.9,163.651 739.5,166.5C 738.395,167.892 737.061,169.059 735.5,170C 728.147,173.208 720.813,173.208 713.5,170C 711.676,169.34 710.343,168.173 709.5,166.5C 711.17,166.751 712.67,167.418 714,168.5C 714.333,168.167 714.667,167.833 715,167.5C 716.185,169.844 718.018,170.677 720.5,170C 719.054,167.507 719.721,165.673 722.5,164.5C 724.747,165.374 727.08,165.708 729.5,165.5C 729.513,162.639 730.679,161.639 733,162.5C 733.698,161.309 734.531,160.309 735.5,159.5 Z"/></g>
<g><path style="opacity:1" fill="#11aab2" d="M 182.5,161.5 C 181.602,168.629 178.602,174.629 173.5,179.5C 172.581,176.713 170.414,174.379 167,172.5C 165.956,173.623 165.29,174.956 165,176.5C 161.274,178.075 160.107,177.075 161.5,173.5C 163.533,170.477 165.533,167.477 167.5,164.5C 168.172,165.267 169.005,165.934 170,166.5C 171.879,164.473 173.046,162.14 173.5,159.5C 176.038,160.677 178.371,162.344 180.5,164.5C 181.176,163.398 181.842,162.398 182.5,161.5 Z"/></g>
<g><path style="opacity:0.996" fill="#363a40" d="M 685.5,158.5 C 686.609,158.557 687.609,158.89 688.5,159.5C 689.449,164.74 689.782,170.073 689.5,175.5C 688.18,176.942 686.514,177.608 684.5,177.5C 683.833,177.5 683.167,177.5 682.5,177.5C 684.85,175.787 685.85,173.453 685.5,170.5C 680.445,171.994 675.445,171.827 670.5,170C 667.8,168.143 666.134,165.643 665.5,162.5C 665.435,162.062 665.601,161.728 666,161.5C 667.419,162.46 668.919,163.293 670.5,164C 669.833,164.333 669.167,164.667 668.5,165C 670.521,165.513 672.021,166.68 673,168.5C 673.333,168.167 673.667,167.833 674,167.5C 677.459,170.08 680.959,170.08 684.5,167.5C 685.863,168.879 686.863,168.713 687.5,167C 686.507,164.22 684.507,162.553 681.5,162C 682.056,161.617 682.389,161.117 682.5,160.5C 683.29,159.599 684.29,158.932 685.5,158.5 Z"/></g>
<g><path style="opacity:1" fill="#19aaaf" d="M 127.5,172.5 C 126.699,174.042 126.366,175.708 126.5,177.5C 122.144,178.084 117.477,178.417 112.5,178.5C 112.5,177.5 112.5,176.5 112.5,175.5C 108.544,174.947 108.544,174.114 112.5,173C 110.598,171.095 108.432,169.595 106,168.5C 104.941,168.63 104.108,169.13 103.5,170C 104.227,171.399 104.727,172.899 105,174.5C 109.711,176.391 109.544,177.224 104.5,177C 102.697,176.363 101.364,175.197 100.5,173.5C 100.167,174 99.8333,174.5 99.5,175C 101.875,178.24 104.375,181.406 107,184.5C 110.175,181.876 111.341,182.542 110.5,186.5C 108.821,186.108 107.154,185.608 105.5,185C 95.6615,176.296 90.9948,165.463 91.5,152.5C 100.319,164.909 112.319,171.576 127.5,172.5 Z"/></g>
<g><path style="opacity:0.004" fill="#000000" d="M 677.5,173.5 C 678.601,172.402 679.934,172.235 681.5,173C 680.207,173.49 678.873,173.657 677.5,173.5 Z"/></g>
<g><path style="opacity:1" fill="#14a9b2" d="M 151.5,178.5 C 149.634,179.014 147.8,179.68 146,180.5C 145.5,180.167 145,179.833 144.5,179.5C 145.246,178.264 145.579,176.93 145.5,175.5C 142.075,176.387 138.742,175.887 135.5,174C 138.557,173.744 141.557,173.244 144.5,172.5C 149.123,175.698 150.79,174.698 149.5,169.5C 155.321,166.859 160.488,163.192 165,158.5C 163.544,167.139 159.044,173.806 151.5,178.5 Z"/></g>
<g><path style="opacity:1" fill="#0faab1" d="M 173.5,179.5 C 171.067,183.768 167.734,187.268 163.5,190C 159.14,192.18 154.807,194.347 150.5,196.5C 151.031,194.376 152.365,192.876 154.5,192C 151.86,189.673 151.026,187.173 152,184.5C 153.221,185.272 154.221,186.272 155,187.5C 159.77,184.401 159.27,182.401 153.5,181.5C 156.5,179.167 159.167,176.5 161.5,173.5C 160.107,177.075 161.274,178.075 165,176.5C 165.29,174.956 165.956,173.623 167,172.5C 170.414,174.379 172.581,176.713 173.5,179.5 Z"/></g>
<g><path style="opacity:0.004" fill="#fefffe" d="M 761.5,175.5 C 762.833,176.167 762.833,176.167 761.5,175.5 Z"/></g>
<g><path style="opacity:1" fill="#13abb3" d="M 127.5,172.5 C 135.069,173.022 142.403,172.022 149.5,169.5C 150.79,174.698 149.123,175.698 144.5,172.5C 141.557,173.244 138.557,173.744 135.5,174C 138.742,175.887 142.075,176.387 145.5,175.5C 145.579,176.93 145.246,178.264 144.5,179.5C 145,179.833 145.5,180.167 146,180.5C 147.8,179.68 149.634,179.014 151.5,178.5C 143.208,185.491 133.541,189.157 122.5,189.5C 118.294,188.863 114.294,187.863 110.5,186.5C 111.341,182.542 110.175,181.876 107,184.5C 104.375,181.406 101.875,178.24 99.5,175C 99.8333,174.5 100.167,174 100.5,173.5C 101.364,175.197 102.697,176.363 104.5,177C 109.544,177.224 109.711,176.391 105,174.5C 104.727,172.899 104.227,171.399 103.5,170C 104.108,169.13 104.941,168.63 106,168.5C 108.432,169.595 110.598,171.095 112.5,173C 108.544,174.114 108.544,174.947 112.5,175.5C 112.5,176.5 112.5,177.5 112.5,178.5C 117.477,178.417 122.144,178.084 126.5,177.5C 126.366,175.708 126.699,174.042 127.5,172.5 Z"/></g>
<g><path style="opacity:0.332" fill="#35383e" d="M 699.5,140.5 C 699.667,151.505 699.5,162.505 699,173.5C 695.912,185.802 688.079,190.635 675.5,188C 672.026,187.699 668.692,186.866 665.5,185.5C 665.296,182.575 665.296,179.742 665.5,177C 666.729,176.219 668.062,175.719 669.5,175.5C 673.723,176.913 678.057,177.579 682.5,177.5C 683.167,177.5 683.833,177.5 684.5,177.5C 683.685,178.837 682.518,179.837 681,180.5C 677.924,179.712 674.758,179.212 671.5,179C 671,178.5 670.5,178 670,177.5C 669.215,179.286 668.049,180.786 666.5,182C 667.167,182.667 667.833,183.333 668.5,184C 673.482,185.403 678.315,186.237 683,186.5C 684,185.5 685,184.5 686,183.5C 689.815,184.234 692.315,182.568 693.5,178.5C 697.662,174.863 698.328,170.363 695.5,165C 697.021,160.915 698.021,156.915 698.5,153C 697.833,149.333 697.167,145.667 696.5,142C 697.252,141.329 697.586,140.496 697.5,139.5C 698.967,136.742 699.633,137.075 699.5,140.5 Z"/></g>
<g><path style="opacity:1" fill="#373d46" d="M 689.5,175.5 C 690.833,175.5 692.167,175.5 693.5,175.5C 693.5,176.5 693.5,177.5 693.5,178.5C 692.315,182.568 689.815,184.234 686,183.5C 685,184.5 684,185.5 683,186.5C 678.315,186.237 673.482,185.403 668.5,184C 667.833,183.333 667.167,182.667 666.5,182C 668.049,180.786 669.215,179.286 670,177.5C 670.5,178 671,178.5 671.5,179C 674.758,179.212 677.924,179.712 681,180.5C 682.518,179.837 683.685,178.837 684.5,177.5C 686.514,177.608 688.18,176.942 689.5,175.5 Z"/></g>
<g><path style="opacity:0.004" fill="#00fffe" d="M 130.5,189.5 C 131.833,190.167 131.833,190.167 130.5,189.5 Z"/></g>
<g><path style="opacity:1" fill="#1ca8b1" d="M 153.5,181.5 C 159.27,182.401 159.77,184.401 155,187.5C 154.221,186.272 153.221,185.272 152,184.5C 151.026,187.173 151.86,189.673 154.5,192C 152.365,192.876 151.031,194.376 150.5,196.5C 140.386,198.179 130.386,197.679 120.5,195C 118.668,194.252 117.001,193.252 115.5,192C 129.566,193.252 142.233,189.752 153.5,181.5 Z"/></g>
<g><path style="opacity:0.004" fill="#fefffe" d="M 638.5,193.5 C 639.833,194.167 639.833,194.167 638.5,193.5 Z"/></g>
<g><path style="opacity:0.004" fill="#fefffe" d="M 575.5,194.5 C 576.833,195.167 576.833,195.167 575.5,194.5 Z"/></g>
<g><path style="opacity:0.004" fill="#fefffe" d="M 758.5,195.5 C 759.833,196.167 759.833,196.167 758.5,195.5 Z"/></g>
<g><path style="opacity:0.004" fill="#fefffe" d="M 866.5,200.5 C 867.833,201.167 867.833,201.167 866.5,200.5 Z"/></g>
<g><path style="opacity:0.004" fill="#fefffe" d="M 290.5,203.5 C 291.833,204.167 291.833,204.167 290.5,203.5 Z"/></g>
<g><path style="opacity:0.004" fill="#fefffe" d="M 656.5,203.5 C 657.833,204.167 657.833,204.167 656.5,203.5 Z"/></g>
<g><path style="opacity:0.004" fill="#fefffe" d="M 440.5,208.5 C 441.833,209.167 441.833,209.167 440.5,208.5 Z"/></g>
<g><path style="opacity:0.004" fill="#fefffe" d="M 296.5,209.5 C 297.833,210.167 297.833,210.167 296.5,209.5 Z"/></g>
<g><path style="opacity:0.004" fill="#fefffe" d="M 131.5,210.5 C 132.833,211.167 132.833,211.167 131.5,210.5 Z"/></g>
<g><path style="opacity:0.004" fill="#fefffe" d="M 335.5,212.5 C 336.833,213.167 336.833,213.167 335.5,212.5 Z"/></g>
<g><path style="opacity:0.004" fill="#fefffe" d="M 530.5,217.5 C 531.833,218.167 531.833,218.167 530.5,217.5 Z"/></g>
<g><path style="opacity:0.004" fill="#fefffe" d="M 521.5,222.5 C 522.833,223.167 522.833,223.167 521.5,222.5 Z"/></g>
<g><path style="opacity:0.004" fill="#fefffe" d="M 734.5,232.5 C 735.833,233.167 735.833,233.167 734.5,232.5 Z"/></g>
<g><path style="opacity:0.004" fill="#fefffe" d="M 218.5,242.5 C 219.833,243.167 219.833,243.167 218.5,242.5 Z"/></g>
<g><path style="opacity:0.004" fill="#fefffe" d="M 224.5,247.5 C 225.833,248.167 225.833,248.167 224.5,247.5 Z"/></g>
<g><path style="opacity:0.004" fill="#fefffe" d="M 533.5,248.5 C 534.833,249.167 534.833,249.167 533.5,248.5 Z"/></g>
<g><path style="opacity:0.004" fill="#fefffe" d="M 260.5,254.5 C 261.833,255.167 261.833,255.167 260.5,254.5 Z"/></g>
<g><path style="opacity:0.004" fill="#fefffe" d="M 338.5,257.5 C 339.833,258.167 339.833,258.167 338.5,257.5 Z"/></g>
<g><path style="opacity:0.004" fill="#fefffe" d="M 461.5,258.5 C 462.833,259.167 462.833,259.167 461.5,258.5 Z"/></g>
<g><path style="opacity:0.004" fill="#fefffe" d="M 845.5,259.5 C 846.833,260.167 846.833,260.167 845.5,259.5 Z"/></g>
<g><path style="opacity:0.004" fill="#fefffe" d="M 383.5,263.5 C 384.833,264.167 384.833,264.167 383.5,263.5 Z"/></g>
<g><path style="opacity:0.004" fill="#fefffe" d="M -0.5,265.5 C 0.833333,266.167 0.833333,266.167 -0.5,265.5 Z"/></g>
<g><path style="opacity:0.004" fill="#fefffe" d="M 185.5,265.5 C 186.833,266.167 186.833,266.167 185.5,265.5 Z"/></g>
<g><path style="opacity:0.004" fill="#fefffe" d="M 485.5,265.5 C 486.833,266.167 486.833,266.167 485.5,265.5 Z"/></g>
<g><path style="opacity:0.004" fill="#fefffe" d="M 125.5,267.5 C 126.833,268.167 126.833,268.167 125.5,267.5 Z"/></g>
<g><path style="opacity:0.004" fill="#fefffe" d="M 527.5,269.5 C 528.833,270.167 528.833,270.167 527.5,269.5 Z"/></g>
<g><path style="opacity:0.004" fill="#fefffe" d="M 77.5,271.5 C 78.8333,272.167 78.8333,272.167 77.5,271.5 Z"/></g>
<g><path style="opacity:0.004" fill="#fefffe" d="M 395.5,272.5 C 396.833,273.167 396.833,273.167 395.5,272.5 Z"/></g>
<g><path style="opacity:0.004" fill="#fefffe" d="M 719.5,274.5 C 720.833,275.167 720.833,275.167 719.5,274.5 Z"/></g>
<g><path style="opacity:0.004" fill="#fefffe" d="M 506.5,275.5 C 507.833,276.167 507.833,276.167 506.5,275.5 Z"/></g>
<g><path style="opacity:0.004" fill="#fefffe" d="M 308.5,276.5 C 309.833,277.167 309.833,277.167 308.5,276.5 Z"/></g>
<g><path style="opacity:0.004" fill="#fefffe" d="M 473.5,278.5 C 474.833,279.167 474.833,279.167 473.5,278.5 Z"/></g>
<g><path style="opacity:0.004" fill="#fefffe" d="M 86.5,282.5 C 87.8333,283.167 87.8333,283.167 86.5,282.5 Z"/></g>
<g><path style="opacity:0.004" fill="#fefffe" d="M 824.5,282.5 C 825.833,283.167 825.833,283.167 824.5,282.5 Z"/></g>
<g><path style="opacity:0.004" fill="#fefffe" d="M 815.5,283.5 C 816.833,284.167 816.833,284.167 815.5,283.5 Z"/></g>
</svg>
