<svg version="1.1" id="Layer_1" xmlns="http://www.w3.org/2000/svg" xmlns:xlink="http://www.w3.org/1999/xlink" x="0px" y="0px"
	 width="100%" viewBox="0 0 901 297" enable-background="new 0 0 901 297" xml:space="preserve">
<path fill="#FEFFFF" opacity="1.000000" stroke="none" 
	d="
M856.000000,298.000000 
	C570.666687,298.000000 285.833344,298.000000 1.000000,298.000000 
	C1.000000,199.000000 1.000000,100.000000 1.000000,1.000000 
	C301.333344,1.000000 601.666687,1.000000 902.000000,1.000000 
	C902.000000,100.000000 902.000000,199.000000 902.000000,298.000000 
	C886.833313,298.000000 871.666687,298.000000 856.000000,298.000000 
M167.836151,116.357170 
	C167.383209,116.333290 166.930283,116.309402 166.477341,116.285515 
	C166.769135,116.735886 167.060928,117.186256 167.746277,118.182373 
	C168.520218,119.263153 169.320892,120.325890 170.064087,121.427406 
	C181.963242,139.063461 183.203583,157.604523 172.724701,175.947906 
	C162.145889,194.466156 145.165329,201.946609 123.480034,200.478073 
	C125.506050,201.414307 127.065475,202.324493 128.742279,202.881073 
	C149.882263,209.897720 172.406189,201.688583 184.263062,182.695938 
	C198.298935,160.212906 190.416962,128.064072 167.836151,116.357170 
M518.570618,136.946472 
	C515.948120,138.298630 513.325623,139.650772 510.576263,141.068314 
	C508.029175,135.691406 503.510559,136.531387 498.937073,136.926392 
	C498.937073,150.674316 498.937073,164.095001 498.937073,177.625946 
	C503.105072,177.625946 506.990967,177.625946 511.174225,177.625946 
	C511.174225,169.694321 511.349640,162.206390 511.101837,154.732483 
	C510.973663,150.866821 512.455200,148.323608 516.126831,148.111069 
	C520.661316,147.848587 520.114502,151.646637 520.137268,154.578903 
	C520.196167,162.183670 520.156982,169.789200 520.156982,177.586365 
	C524.805176,177.586365 528.818054,177.586365 533.007019,177.586365 
	C533.007019,169.105820 533.080811,161.114868 532.974976,153.126297 
	C532.924255,149.298691 535.545166,147.898483 538.350464,148.176315 
	C539.696594,148.309631 541.641541,151.197586 541.791565,152.967194 
	C542.254272,158.425293 541.942200,163.946106 542.012451,169.441513 
	C542.055725,172.828278 542.155579,176.577667 546.092407,177.698196 
	C549.762939,178.742935 553.622559,178.635452 555.765991,175.946869 
	C555.407654,171.585251 555.029907,168.149918 554.862976,164.704376 
	C554.549683,158.235428 554.768433,151.711517 554.001648,145.301895 
	C553.225220,138.812363 548.219971,135.367844 541.793030,136.768753 
	C538.172119,137.557999 534.827820,139.616455 531.104736,141.212097 
	C528.439819,137.540359 524.453552,135.723389 518.570618,136.946472 
M725.075928,157.554230 
	C725.431091,153.282150 726.019287,149.011673 726.048523,144.737366 
	C726.064453,142.407974 725.702148,139.642303 724.397705,137.912338 
	C723.698120,136.984406 720.643250,137.829224 718.651245,137.879822 
	C716.896423,137.924393 714.838013,138.603531 713.436157,137.924225 
	C704.339600,133.516052 694.368652,136.547699 691.385681,146.128296 
	C689.544861,152.040588 689.299194,158.880905 690.079041,165.085678 
	C691.582764,177.050735 700.100098,181.189880 710.980042,176.218628 
	C711.477295,175.991440 712.076904,175.988251 712.704773,175.865936 
	C712.579163,186.385620 709.358032,187.733749 693.069946,183.999878 
	C692.204651,186.790726 691.322083,189.637360 689.998291,193.906860 
	C697.271362,194.422668 703.495056,195.498123 709.637024,195.146591 
	C718.209900,194.655945 722.730042,190.507248 723.901306,181.900284 
	C724.948853,174.202423 724.734009,166.332794 725.075928,157.554230 
M249.468491,178.326752 
	C256.034760,178.302658 260.527985,174.913315 263.170319,169.224014 
	C267.182068,160.586197 266.895782,151.752518 262.920135,143.202774 
	C260.008026,136.940216 253.574768,134.479446 246.985214,136.780533 
	C244.696579,137.579742 242.599792,138.928406 240.415390,140.026123 
	C240.516113,139.674362 240.616837,139.322601 240.717560,138.970840 
	C237.284012,138.008896 233.850464,137.046951 229.964905,135.958374 
	C229.964905,156.344910 229.964905,175.563919 229.964905,194.745316 
	C240.327530,195.976852 242.057541,194.458191 242.076080,184.410889 
	C242.080368,182.092407 242.076721,179.773911 242.076721,177.322174 
	C244.491333,177.683624 246.588165,177.997482 249.468491,178.326752 
M682.047180,176.944687 
	C682.623535,174.853592 683.653015,172.764099 683.660461,170.670959 
	C683.669617,168.112442 682.540405,165.565704 682.404358,162.987442 
	C682.141785,158.011795 682.459839,153.001724 682.115723,148.035126 
	C681.684937,141.816971 678.111267,137.352448 671.955811,137.069946 
	C665.641113,136.780167 659.254517,138.155029 652.893433,138.735611 
	C649.468811,139.048172 649.400208,141.144012 650.144165,143.676086 
	C650.906494,146.270691 651.608093,148.923141 655.399170,147.939209 
	C658.276306,147.192474 661.192139,146.309250 664.128113,146.141708 
	C668.441345,145.895538 669.624451,147.741623 668.709717,152.428101 
	C660.746826,152.731369 652.350952,152.354675 648.634216,161.717178 
	C646.753906,166.453552 648.198547,172.911545 652.000366,175.925919 
	C658.998901,181.474930 665.680847,178.585922 670.442688,175.464508 
	C675.198303,176.359528 678.389343,176.960083 682.047180,176.944687 
M566.898499,176.778564 
	C573.783203,180.827042 579.936279,178.647110 585.842102,174.321686 
	C586.486511,174.800064 586.954651,175.386337 587.536499,175.538696 
	C590.221497,176.241806 593.599792,178.106766 595.481750,177.136063 
	C598.028870,175.822296 599.258179,172.453064 597.024353,168.983673 
	C596.144470,167.617203 596.411011,165.438507 596.363647,163.624252 
	C596.229187,158.472961 596.411255,153.305344 596.078857,148.169373 
	C595.671509,141.875427 592.199646,137.399292 586.041809,137.085388 
	C579.733154,136.763824 573.343750,138.160751 566.981201,138.706970 
	C563.094788,139.040619 563.510559,141.606766 564.200623,144.077438 
	C564.950378,146.762161 566.113525,149.010147 569.793335,147.804321 
	C572.445129,146.935318 575.262573,146.239258 578.031128,146.136292 
	C582.278992,145.978317 583.545227,147.931381 582.687317,152.381714 
	C570.682800,152.730576 565.378601,154.854187 562.977539,160.803482 
	C560.638123,166.599915 561.731445,171.881912 566.898499,176.778564 
M627.995422,162.489914 
	C627.996033,164.822220 627.537781,167.275299 628.111877,169.456696 
	C628.853394,172.274094 629.714417,176.080231 631.790955,177.295273 
	C635.200134,179.290009 639.398621,178.594604 641.788635,175.933228 
	C641.421692,171.583008 641.035400,168.142410 640.861389,164.691116 
	C640.551697,158.550598 640.762024,152.356842 640.035461,146.271255 
	C639.150635,138.860260 633.577087,135.124985 626.503784,136.927551 
	C623.540710,137.682648 620.822144,139.397339 617.992371,140.675766 
	C618.130493,140.253220 618.268555,139.830658 618.406677,139.408112 
	C614.507080,138.274506 610.607483,137.140900 606.246033,135.873032 
	C606.246033,150.756149 606.246033,164.151672 606.246033,177.810516 
	C610.336609,177.810516 614.104248,177.810516 618.067810,177.810516 
	C618.241211,176.453278 618.504211,175.323257 618.510681,174.191757 
	C618.550964,167.195053 618.576416,160.197662 618.518005,153.201233 
	C618.486694,149.452255 620.961670,148.300674 623.957703,148.045776 
	C627.447449,147.748840 627.949463,150.283707 627.960388,153.015701 
	C627.971619,155.847580 627.983765,158.679474 627.995422,162.489914 
M309.883728,175.777802 
	C324.654846,183.716202 338.224426,176.256485 339.172241,159.622192 
	C339.313507,157.143173 339.267975,154.612549 338.939453,152.155182 
	C337.811737,143.719940 332.419678,137.793320 324.692017,136.240372 
	C316.564636,134.607086 308.636139,137.900101 304.910248,144.554459 
	C300.347992,152.702606 300.360138,168.650909 309.883728,175.777802 
M745.781250,162.037399 
	C750.405640,161.870926 755.028931,161.608719 759.654602,161.559586 
	C767.266052,161.478729 767.270081,161.536926 767.304260,153.854889 
	C767.307190,153.191986 767.214783,152.529175 767.183105,151.865540 
	C766.770935,143.254898 761.575012,137.332901 753.397949,136.158447 
	C744.608154,134.895981 736.925659,139.066406 734.133972,146.804840 
	C731.751831,153.408142 731.710022,160.152161 733.641296,166.873138 
	C735.739868,174.176407 740.349915,178.283798 747.888428,178.646103 
	C751.933228,178.840515 756.169983,178.225952 760.090088,177.143616 
	C767.479553,175.103455 767.893250,172.961899 762.818054,167.286652 
	C759.656006,167.868881 756.607544,168.579803 753.518311,168.963608 
	C749.009094,169.523819 746.156799,167.607010 745.781250,162.037399 
M384.917816,178.773987 
	C389.621582,178.014420 394.381470,177.493515 399.008209,176.406250 
	C401.809021,175.748093 403.558044,174.010345 402.004028,170.519928 
	C400.663727,167.509537 399.224213,166.458282 395.926788,167.932907 
	C393.889160,168.844162 391.402161,168.994431 389.108398,169.037827 
	C384.499023,169.125046 382.159027,166.728043 382.153107,161.595062 
	C389.109985,161.595062 395.874664,161.595062 402.748444,161.595062 
	C404.778015,154.350128 405.026215,147.622192 400.248413,141.834351 
	C391.918976,131.744034 375.176605,134.961670 370.711914,147.343262 
	C365.231689,162.541107 370.782562,175.583084 384.917816,178.773987 
M114.188026,193.467072 
	C137.421021,200.956528 170.289490,186.658600 170.311356,169.053192 
	C138.777313,187.565384 123.651024,185.984009 96.310791,161.216934 
	C96.778099,169.814865 99.369881,177.654831 104.307907,184.451630 
	C106.740021,187.799225 110.392990,190.259842 114.188026,193.467072 
M441.843201,169.576538 
	C440.120483,166.061310 438.000153,165.530716 434.316742,167.449402 
	C428.940216,170.250015 424.276459,169.126923 423.570282,164.840820 
	C422.702972,159.576736 423.096313,154.048874 423.496735,148.676178 
	C423.583649,147.509491 426.161377,145.521347 427.326599,145.694672 
	C428.813690,145.915878 430.470245,147.725754 431.246399,149.259460 
	C432.084930,150.916504 431.992371,153.044769 432.298187,154.920135 
	C436.186249,155.734055 440.309357,156.503464 442.348022,152.622238 
	C444.554199,148.422180 442.988525,144.178909 439.846008,140.752502 
	C435.448700,135.958054 426.803131,134.525787 420.438019,137.392441 
	C412.024109,141.181824 408.138580,150.266479 409.622711,161.908218 
	C412.049591,180.945038 429.222656,181.908081 440.083435,174.915222 
	C441.266113,174.153732 441.451141,171.842804 441.843201,169.576538 
M460.472198,124.922920 
	C458.390717,125.345543 455.144623,125.106361 454.454987,126.319931 
	C452.676727,129.449173 452.029022,133.220871 450.859985,136.958618 
	C449.555176,137.054749 447.772003,137.186111 445.517639,137.352188 
	C445.517639,140.255203 445.517639,142.959961 445.517639,145.837097 
	C447.800964,145.972672 449.712311,146.086136 451.922791,146.217377 
	C451.922791,152.202530 451.912964,157.833542 451.924774,163.464539 
	C451.950500,175.747665 455.214355,178.762955 467.548676,177.907089 
	C468.377563,177.849564 469.205109,177.627548 470.027893,177.653366 
	C472.924713,177.744263 473.906738,176.224884 473.490021,173.582901 
	C473.216309,171.847672 472.791840,170.136230 472.455963,168.515823 
	C468.715240,168.012497 464.348267,169.386795 464.351776,163.795364 
	C464.355438,158.011139 464.352600,152.226929 464.352600,146.125702 
	C467.693298,146.125702 470.647522,146.125702 473.950623,146.125702 
	C473.950623,142.966003 473.950623,140.131348 473.950623,136.933487 
	C470.506775,136.933487 467.567047,136.933487 464.328339,136.933487 
	C464.328339,133.588333 464.578888,130.574936 464.191437,127.645905 
	C464.057190,126.630760 462.340179,125.824982 460.472198,124.922920 
M346.792206,136.989639 
	C343.445892,136.650620 342.649231,138.855484 343.114655,141.353226 
	C343.430420,143.047928 344.512939,145.559692 345.775543,145.931900 
	C349.103302,146.912903 349.207153,149.228958 349.229370,151.725037 
	C349.301849,159.866425 349.180939,168.010025 349.302521,176.150284 
	C349.379364,181.294571 348.428375,185.757385 343.121674,187.754807 
	C344.457947,195.806244 345.937592,196.692795 352.904907,193.714172 
	C359.212311,191.017700 361.554840,185.709854 361.685364,179.322800 
	C361.905914,168.527115 362.058685,157.722855 361.872040,146.928574 
	C361.748352,139.773697 358.457123,136.976868 351.187531,136.917450 
	C350.025024,136.907959 348.862122,136.950851 346.792206,136.989639 
M286.725006,170.387726 
	C286.725098,165.235809 286.827118,160.081238 286.693726,154.932785 
	C286.582794,150.650955 289.109802,149.017105 292.762970,148.544785 
	C294.357269,148.338623 296.019104,148.654678 298.198303,148.760101 
	C299.073151,144.953690 299.932343,141.215302 300.791779,137.475937 
	C293.662476,135.664459 288.579468,137.248093 285.593018,142.541489 
	C282.773651,140.590164 280.403168,138.577072 277.694122,137.260544 
	C276.632416,136.744583 274.136414,137.313507 273.488770,138.231522 
	C272.405243,139.767395 271.706451,142.031799 271.874573,143.896851 
	C272.207581,147.591080 273.723236,151.200714 273.886444,154.883606 
	C274.221344,162.441483 273.987000,170.024582 273.987000,177.664490 
	C278.570068,177.664490 282.452332,177.664490 286.724945,177.664490 
	C286.724945,175.283325 286.724945,173.317505 286.725006,170.387726 
M145.900055,110.192490 
	C123.729912,109.165222 103.936470,123.212059 97.678543,144.413895 
	C95.262863,152.598206 100.544914,162.888397 108.781059,165.999344 
	C107.068542,151.400238 110.611931,138.300537 119.983261,126.901779 
	C126.956512,118.419930 136.404877,113.821510 145.900055,110.192490 
M790.592346,138.769196 
	C789.298767,140.219925 788.005188,141.670639 786.935425,142.870407 
	C785.041138,141.168991 783.557983,139.112213 781.560364,138.256958 
	C779.751099,137.482346 776.791809,137.187180 775.398438,138.174652 
	C773.401245,139.590057 772.293152,141.965256 774.125732,145.118515 
	C775.521667,147.520370 775.682922,150.841507 775.758545,153.770081 
	C775.962952,161.683624 775.828491,169.605927 775.828491,177.762909 
	C780.261047,177.762909 784.010010,177.762909 788.302185,177.762909 
	C788.302185,171.180511 788.714478,164.868378 788.200867,158.632538 
	C787.514282,150.298080 791.131775,147.524536 799.761169,148.782898 
	C800.682983,145.121155 801.620178,141.398117 802.932068,136.186813 
	C798.129639,137.037125 794.668518,137.649948 790.592346,138.769196 
M356.643524,131.115540 
	C361.513000,130.002457 360.432892,126.158897 359.911835,123.088737 
	C359.143738,118.562981 355.173615,119.933403 352.250092,119.772865 
	C349.117340,119.600830 346.864716,120.622162 346.462280,124.343201 
	C345.830261,130.187622 347.879028,131.774200 356.643524,131.115540 
z"/>
<path fill="#3C4148" opacity="1.000000" stroke="none" 
	d="
M518.950562,136.889099 
	C524.453552,135.723389 528.439819,137.540359 531.104736,141.212097 
	C534.827820,139.616455 538.172119,137.557999 541.793030,136.768753 
	C548.219971,135.367844 553.225220,138.812363 554.001648,145.301895 
	C554.768433,151.711517 554.549683,158.235428 554.862976,164.704376 
	C555.029907,168.149918 555.407654,171.585251 555.765991,175.946869 
	C553.622559,178.635452 549.762939,178.742935 546.092407,177.698196 
	C542.155579,176.577667 542.055725,172.828278 542.012451,169.441513 
	C541.942200,163.946106 542.254272,158.425293 541.791565,152.967194 
	C541.641541,151.197586 539.696594,148.309631 538.350464,148.176315 
	C535.545166,147.898483 532.924255,149.298691 532.974976,153.126297 
	C533.080811,161.114868 533.007019,169.105820 533.007019,177.586365 
	C528.818054,177.586365 524.805176,177.586365 520.156982,177.586365 
	C520.156982,169.789200 520.196167,162.183670 520.137268,154.578903 
	C520.114502,151.646637 520.661316,147.848587 516.126831,148.111069 
	C512.455200,148.323608 510.973663,150.866821 511.101837,154.732483 
	C511.349640,162.206390 511.174225,169.694321 511.174225,177.625946 
	C506.990967,177.625946 503.105072,177.625946 498.937073,177.625946 
	C498.937073,164.095001 498.937073,150.674316 498.937073,136.926392 
	C503.510559,136.531387 508.029175,135.691406 510.576263,141.068314 
	C513.325623,139.650772 515.948120,138.298630 518.950562,136.889099 
z"/>
<path fill="#3B4048" opacity="1.000000" stroke="none" 
	d="
M725.076050,158.046600 
	C724.734009,166.332794 724.948853,174.202423 723.901306,181.900284 
	C722.730042,190.507248 718.209900,194.655945 709.637024,195.146591 
	C703.495056,195.498123 697.271362,194.422668 689.998291,193.906860 
	C691.322083,189.637360 692.204651,186.790726 693.069946,183.999878 
	C709.358032,187.733749 712.579163,186.385620 712.704773,175.865936 
	C712.076904,175.988251 711.477295,175.991440 710.980042,176.218628 
	C700.100098,181.189880 691.582764,177.050735 690.079041,165.085678 
	C689.299194,158.880905 689.544861,152.040588 691.385681,146.128296 
	C694.368652,136.547699 704.339600,133.516052 713.436157,137.924225 
	C714.838013,138.603531 716.896423,137.924393 718.651245,137.879822 
	C720.643250,137.829224 723.698120,136.984406 724.397705,137.912338 
	C725.702148,139.642303 726.064453,142.407974 726.048523,144.737366 
	C726.019287,149.011673 725.431091,153.282150 725.076050,158.046600 
M709.757874,146.083298 
	C706.114563,144.730652 703.478149,146.315292 703.076660,149.739792 
	C702.507263,154.596603 702.554932,159.614517 703.155701,164.462357 
	C703.322876,165.811783 706.332947,167.676498 708.109558,167.757690 
	C710.842651,167.882584 713.116455,166.317657 712.977356,162.783997 
	C712.820129,158.790314 713.167175,154.766388 712.827515,150.795578 
	C712.698120,149.283127 711.271179,147.881683 709.757874,146.083298 
z"/>
<path fill="#3B4048" opacity="1.000000" stroke="none" 
	d="
M249.076752,178.319061 
	C246.588165,177.997482 244.491333,177.683624 242.076721,177.322174 
	C242.076721,179.773911 242.080368,182.092407 242.076080,184.410889 
	C242.057541,194.458191 240.327530,195.976852 229.964905,194.745316 
	C229.964905,175.563919 229.964905,156.344910 229.964905,135.958374 
	C233.850464,137.046951 237.284012,138.008896 240.717560,138.970840 
	C240.616837,139.322601 240.516113,139.674362 240.415390,140.026123 
	C242.599792,138.928406 244.696579,137.579742 246.985214,136.780533 
	C253.574768,134.479446 260.008026,136.940216 262.920135,143.202774 
	C266.895782,151.752518 267.182068,160.586197 263.170319,169.224014 
	C260.527985,174.913315 256.034760,178.302658 249.076752,178.319061 
M242.051147,152.007629 
	C242.051102,155.829300 242.236023,159.662857 241.991699,163.468857 
	C241.800598,166.445648 242.733887,168.224014 245.715683,168.858932 
	C248.984299,169.554947 251.264084,167.855881 251.699280,165.081497 
	C252.408585,160.559570 252.692841,155.852646 252.221390,151.321060 
	C252.028137,149.463623 248.960312,146.209717 247.973297,146.474396 
	C245.744171,147.072128 243.996490,149.465256 242.051147,152.007629 
z"/>
<path fill="#05AFB6" opacity="1.000000" stroke="none" 
	d="
M168.121689,116.858894 
	C190.416962,128.064072 198.298935,160.212906 184.263062,182.695938 
	C172.406189,201.688583 149.882263,209.897720 128.742279,202.881073 
	C127.065475,202.324493 125.506050,201.414307 123.480034,200.478073 
	C145.165329,201.946609 162.145889,194.466156 172.724701,175.947906 
	C183.203583,157.604523 181.963242,139.063461 170.064087,121.427406 
	C169.320892,120.325890 168.520218,119.263153 167.750366,117.723587 
	C167.876862,117.129501 167.999268,116.994202 168.121689,116.858894 
z"/>
<path fill="#3C4149" opacity="1.000000" stroke="none" 
	d="
M681.813782,177.252655 
	C678.389343,176.960083 675.198303,176.359528 670.442688,175.464508 
	C665.680847,178.585922 658.998901,181.474930 652.000366,175.925919 
	C648.198547,172.911545 646.753906,166.453552 648.634216,161.717178 
	C652.350952,152.354675 660.746826,152.731369 668.709717,152.428101 
	C669.624451,147.741623 668.441345,145.895538 664.128113,146.141708 
	C661.192139,146.309250 658.276306,147.192474 655.399170,147.939209 
	C651.608093,148.923141 650.906494,146.270691 650.144165,143.676086 
	C649.400208,141.144012 649.468811,139.048172 652.893433,138.735611 
	C659.254517,138.155029 665.641113,136.780167 671.955811,137.069946 
	C678.111267,137.352448 681.684937,141.816971 682.115723,148.035126 
	C682.459839,153.001724 682.141785,158.011795 682.404358,162.987442 
	C682.540405,165.565704 683.669617,168.112442 683.660461,170.670959 
	C683.653015,172.764099 682.623535,174.853592 681.813782,177.252655 
M668.062622,160.662750 
	C666.914856,160.655746 665.546509,160.247040 664.667480,160.729584 
	C663.086060,161.597687 661.291016,162.754684 660.560303,164.263275 
	C660.047241,165.322510 660.743835,168.062881 661.622009,168.461151 
	C663.199646,169.176697 665.581543,169.291016 667.160828,168.596115 
	C670.877502,166.960678 670.374878,163.899628 668.062622,160.662750 
z"/>
<path fill="#3C4149" opacity="1.000000" stroke="none" 
	d="
M566.603333,176.541321 
	C561.731445,171.881912 560.638123,166.599915 562.977539,160.803482 
	C565.378601,154.854187 570.682800,152.730576 582.687317,152.381714 
	C583.545227,147.931381 582.278992,145.978317 578.031128,146.136292 
	C575.262573,146.239258 572.445129,146.935318 569.793335,147.804321 
	C566.113525,149.010147 564.950378,146.762161 564.200623,144.077438 
	C563.510559,141.606766 563.094788,139.040619 566.981201,138.706970 
	C573.343750,138.160751 579.733154,136.763824 586.041809,137.085388 
	C592.199646,137.399292 595.671509,141.875427 596.078857,148.169373 
	C596.411255,153.305344 596.229187,158.472961 596.363647,163.624252 
	C596.411011,165.438507 596.144470,167.617203 597.024353,168.983673 
	C599.258179,172.453064 598.028870,175.822296 595.481750,177.136063 
	C593.599792,178.106766 590.221497,176.241806 587.536499,175.538696 
	C586.954651,175.386337 586.486511,174.800064 585.842102,174.321686 
	C579.936279,178.647110 573.783203,180.827042 566.603333,176.541321 
M583.456299,161.310867 
	C581.702637,161.118179 579.920654,160.630722 578.201294,160.795654 
	C574.878174,161.114441 573.632141,163.477631 574.273193,166.443863 
	C574.958557,169.615326 577.493164,169.700241 580.176086,169.081604 
	C584.228149,168.147293 583.911377,165.085800 583.456299,161.310867 
z"/>
<path fill="#3B4048" opacity="1.000000" stroke="none" 
	d="
M627.995483,162.000641 
	C627.983765,158.679474 627.971619,155.847580 627.960388,153.015701 
	C627.949463,150.283707 627.447449,147.748840 623.957703,148.045776 
	C620.961670,148.300674 618.486694,149.452255 618.518005,153.201233 
	C618.576416,160.197662 618.550964,167.195053 618.510681,174.191757 
	C618.504211,175.323257 618.241211,176.453278 618.067810,177.810516 
	C614.104248,177.810516 610.336609,177.810516 606.246033,177.810516 
	C606.246033,164.151672 606.246033,150.756149 606.246033,135.873032 
	C610.607483,137.140900 614.507080,138.274506 618.406677,139.408112 
	C618.268555,139.830658 618.130493,140.253220 617.992371,140.675766 
	C620.822144,139.397339 623.540710,137.682648 626.503784,136.927551 
	C633.577087,135.124985 639.150635,138.860260 640.035461,146.271255 
	C640.762024,152.356842 640.551697,158.550598 640.861389,164.691116 
	C641.035400,168.142410 641.421692,171.583008 641.788635,175.933228 
	C639.398621,178.594604 635.200134,179.290009 631.790955,177.295273 
	C629.714417,176.080231 628.853394,172.274094 628.111877,169.456696 
	C627.537781,167.275299 627.996033,164.822220 627.995483,162.000641 
z"/>
<path fill="#3D4249" opacity="1.000000" stroke="none" 
	d="
M309.596619,175.545288 
	C300.360138,168.650909 300.347992,152.702606 304.910248,144.554459 
	C308.636139,137.900101 316.564636,134.607086 324.692017,136.240372 
	C332.419678,137.793320 337.811737,143.719940 338.939453,152.155182 
	C339.267975,154.612549 339.313507,157.143173 339.172241,159.622192 
	C338.224426,176.256485 324.654846,183.716202 309.596619,175.545288 
M324.110962,167.612961 
	C327.491425,161.712402 326.508667,155.429703 325.220917,149.325058 
	C324.903687,147.821075 322.289734,145.849258 320.711578,145.831039 
	C319.128937,145.812744 316.337128,147.799042 316.139343,149.198486 
	C315.457336,154.024109 315.150818,159.036240 315.693237,163.865952 
	C316.300507,169.273270 318.098114,169.941406 324.110962,167.612961 
z"/>
<path fill="#3C4149" opacity="1.000000" stroke="none" 
	d="
M745.622070,162.487122 
	C746.156799,167.607010 749.009094,169.523819 753.518311,168.963608 
	C756.607544,168.579803 759.656006,167.868881 762.818054,167.286652 
	C767.893250,172.961899 767.479553,175.103455 760.090088,177.143616 
	C756.169983,178.225952 751.933228,178.840515 747.888428,178.646103 
	C740.349915,178.283798 735.739868,174.176407 733.641296,166.873138 
	C731.710022,160.152161 731.751831,153.408142 734.133972,146.804840 
	C736.925659,139.066406 744.608154,134.895981 753.397949,136.158447 
	C761.575012,137.332901 766.770935,143.254898 767.183105,151.865540 
	C767.214783,152.529175 767.307190,153.191986 767.304260,153.854889 
	C767.270081,161.536926 767.266052,161.478729 759.654602,161.559586 
	C755.028931,161.608719 750.405640,161.870926 745.622070,162.487122 
M745.184814,151.648514 
	C748.609680,152.179489 752.034607,152.710480 755.955688,153.318390 
	C755.579224,148.809967 755.085510,145.619614 751.137268,145.080185 
	C747.029602,144.519012 745.862000,147.538025 745.184814,151.648514 
z"/>
<path fill="#3C4149" opacity="1.000000" stroke="none" 
	d="
M384.489380,178.740631 
	C370.782562,175.583084 365.231689,162.541107 370.711914,147.343262 
	C375.176605,134.961670 391.918976,131.744034 400.248413,141.834351 
	C405.026215,147.622192 404.778015,154.350128 402.748444,161.595062 
	C395.874664,161.595062 389.109985,161.595062 382.153107,161.595062 
	C382.159027,166.728043 384.499023,169.125046 389.108398,169.037827 
	C391.402161,168.994431 393.889160,168.844162 395.926788,167.932907 
	C399.224213,166.458282 400.663727,167.509537 402.004028,170.519928 
	C403.558044,174.010345 401.809021,175.748093 399.008209,176.406250 
	C394.381470,177.493515 389.621582,178.014420 384.489380,178.740631 
M382.209229,152.467621 
	C385.427673,152.628479 388.646149,152.789352 391.942230,152.954086 
	C392.522949,148.695175 391.687286,145.534271 387.528046,145.153519 
	C383.205597,144.757828 382.119904,147.977982 382.209229,152.467621 
z"/>
<path fill="#05AFB6" opacity="1.000000" stroke="none" 
	d="
M113.840759,193.294449 
	C110.392990,190.259842 106.740021,187.799225 104.307907,184.451630 
	C99.369881,177.654831 96.778099,169.814865 96.310791,161.216934 
	C123.651024,185.984009 138.777313,187.565384 170.311356,169.053192 
	C170.289490,186.658600 137.421021,200.956528 113.840759,193.294449 
z"/>
<path fill="#3D424A" opacity="1.000000" stroke="none" 
	d="
M441.971069,169.913544 
	C441.451141,171.842804 441.266113,174.153732 440.083435,174.915222 
	C429.222656,181.908081 412.049591,180.945038 409.622711,161.908218 
	C408.138580,150.266479 412.024109,141.181824 420.438019,137.392441 
	C426.803131,134.525787 435.448700,135.958054 439.846008,140.752502 
	C442.988525,144.178909 444.554199,148.422180 442.348022,152.622238 
	C440.309357,156.503464 436.186249,155.734055 432.298187,154.920135 
	C431.992371,153.044769 432.084930,150.916504 431.246399,149.259460 
	C430.470245,147.725754 428.813690,145.915878 427.326599,145.694672 
	C426.161377,145.521347 423.583649,147.509491 423.496735,148.676178 
	C423.096313,154.048874 422.702972,159.576736 423.570282,164.840820 
	C424.276459,169.126923 428.940216,170.250015 434.316742,167.449402 
	C438.000153,165.530716 440.120483,166.061310 441.971069,169.913544 
z"/>
<path fill="#3C4148" opacity="1.000000" stroke="none" 
	d="
M460.909119,124.923248 
	C462.340179,125.824982 464.057190,126.630760 464.191437,127.645905 
	C464.578888,130.574936 464.328339,133.588333 464.328339,136.933487 
	C467.567047,136.933487 470.506775,136.933487 473.950623,136.933487 
	C473.950623,140.131348 473.950623,142.966003 473.950623,146.125702 
	C470.647522,146.125702 467.693298,146.125702 464.352600,146.125702 
	C464.352600,152.226929 464.355438,158.011139 464.351776,163.795364 
	C464.348267,169.386795 468.715240,168.012497 472.455963,168.515823 
	C472.791840,170.136230 473.216309,171.847672 473.490021,173.582901 
	C473.906738,176.224884 472.924713,177.744263 470.027893,177.653366 
	C469.205109,177.627548 468.377563,177.849564 467.548676,177.907089 
	C455.214355,178.762955 451.950500,175.747665 451.924774,163.464539 
	C451.912964,157.833542 451.922791,152.202530 451.922791,146.217377 
	C449.712311,146.086136 447.800964,145.972672 445.517639,145.837097 
	C445.517639,142.959961 445.517639,140.255203 445.517639,137.352188 
	C447.772003,137.186111 449.555176,137.054749 450.859985,136.958618 
	C452.029022,133.220871 452.676727,129.449173 454.454987,126.319931 
	C455.144623,125.106361 458.390717,125.345543 460.909119,124.923248 
z"/>
<path fill="#3F444B" opacity="1.000000" stroke="none" 
	d="
M347.245789,136.979584 
	C348.862122,136.950851 350.025024,136.907959 351.187531,136.917450 
	C358.457123,136.976868 361.748352,139.773697 361.872040,146.928574 
	C362.058685,157.722855 361.905914,168.527115 361.685364,179.322800 
	C361.554840,185.709854 359.212311,191.017700 352.904907,193.714172 
	C345.937592,196.692795 344.457947,195.806244 343.121674,187.754807 
	C348.428375,185.757385 349.379364,181.294571 349.302521,176.150284 
	C349.180939,168.010025 349.301849,159.866425 349.229370,151.725037 
	C349.207153,149.228958 349.103302,146.912903 345.775543,145.931900 
	C344.512939,145.559692 343.430420,143.047928 343.114655,141.353226 
	C342.649231,138.855484 343.445892,136.650620 347.245789,136.979584 
z"/>
<path fill="#3E434B" opacity="1.000000" stroke="none" 
	d="
M286.724976,170.869705 
	C286.724945,173.317505 286.724945,175.283325 286.724945,177.664490 
	C282.452332,177.664490 278.570068,177.664490 273.987000,177.664490 
	C273.987000,170.024582 274.221344,162.441483 273.886444,154.883606 
	C273.723236,151.200714 272.207581,147.591080 271.874573,143.896851 
	C271.706451,142.031799 272.405243,139.767395 273.488770,138.231522 
	C274.136414,137.313507 276.632416,136.744583 277.694122,137.260544 
	C280.403168,138.577072 282.773651,140.590164 285.593018,142.541489 
	C288.579468,137.248093 293.662476,135.664459 300.791779,137.475937 
	C299.932343,141.215302 299.073151,144.953690 298.198303,148.760101 
	C296.019104,148.654678 294.357269,148.338623 292.762970,148.544785 
	C289.109802,149.017105 286.582794,150.650955 286.693726,154.932785 
	C286.827118,160.081238 286.725098,165.235809 286.724976,170.869705 
z"/>
<path fill="#07AFB7" opacity="1.000000" stroke="none" 
	d="
M146.186203,110.211487 
	C136.404877,113.821510 126.956512,118.419930 119.983261,126.901779 
	C110.611931,138.300537 107.068542,151.400238 108.781059,165.999344 
	C100.544914,162.888397 95.262863,152.598206 97.678543,144.413895 
	C103.936470,123.212059 123.729912,109.165222 146.186203,110.211487 
z"/>
<path fill="#3B4048" opacity="1.000000" stroke="none" 
	d="
M790.899902,138.515976 
	C794.668518,137.649948 798.129639,137.037125 802.932068,136.186813 
	C801.620178,141.398117 800.682983,145.121155 799.761169,148.782898 
	C791.131775,147.524536 787.514282,150.298080 788.200867,158.632538 
	C788.714478,164.868378 788.302185,171.180511 788.302185,177.762909 
	C784.010010,177.762909 780.261047,177.762909 775.828491,177.762909 
	C775.828491,169.605927 775.962952,161.683624 775.758545,153.770081 
	C775.682922,150.841507 775.521667,147.520370 774.125732,145.118515 
	C772.293152,141.965256 773.401245,139.590057 775.398438,138.174652 
	C776.791809,137.187180 779.751099,137.482346 781.560364,138.256958 
	C783.557983,139.112213 785.041138,141.168991 786.935425,142.870407 
	C788.005188,141.670639 789.298767,140.219925 790.899902,138.515976 
z"/>
<path fill="#3C4149" opacity="1.000000" stroke="none" 
	d="
M356.241211,131.146637 
	C347.879028,131.774200 345.830261,130.187622 346.462280,124.343201 
	C346.864716,120.622162 349.117340,119.600830 352.250092,119.772865 
	C355.173615,119.933403 359.143738,118.562981 359.911835,123.088737 
	C360.432892,126.158897 361.513000,130.002457 356.241211,131.146637 
z"/>
<path fill="#05AFB6" opacity="1.000000" stroke="none" 
	d="
M167.553574,117.450714 
	C167.060928,117.186256 166.769135,116.735886 166.477341,116.285515 
	C166.930283,116.309402 167.383209,116.333290 167.978912,116.608032 
	C167.999268,116.994202 167.876862,117.129501 167.553574,117.450714 
z"/>
<path fill="#F8F8F8" opacity="1.000000" stroke="none" 
	d="
M710.096680,146.256470 
	C711.271179,147.881683 712.698120,149.283127 712.827515,150.795578 
	C713.167175,154.766388 712.820129,158.790314 712.977356,162.783997 
	C713.116455,166.317657 710.842651,167.882584 708.109558,167.757690 
	C706.332947,167.676498 703.322876,165.811783 703.155701,164.462357 
	C702.554932,159.614517 702.507263,154.596603 703.076660,149.739792 
	C703.478149,146.315292 706.114563,144.730652 710.096680,146.256470 
z"/>
<path fill="#F6F6F7" opacity="1.000000" stroke="none" 
	d="
M242.052048,151.567825 
	C243.996490,149.465256 245.744171,147.072128 247.973297,146.474396 
	C248.960312,146.209717 252.028137,149.463623 252.221390,151.321060 
	C252.692841,155.852646 252.408585,160.559570 251.699280,165.081497 
	C251.264084,167.855881 248.984299,169.554947 245.715683,168.858932 
	C242.733887,168.224014 241.800598,166.445648 241.991699,163.468857 
	C242.236023,159.662857 242.051102,155.829300 242.052048,151.567825 
z"/>
<path fill="#F0F1F1" opacity="1.000000" stroke="none" 
	d="
M668.436096,160.757874 
	C670.374878,163.899628 670.877502,166.960678 667.160828,168.596115 
	C665.581543,169.291016 663.199646,169.176697 661.622009,168.461151 
	C660.743835,168.062881 660.047241,165.322510 660.560303,164.263275 
	C661.291016,162.754684 663.086060,161.597687 664.667480,160.729584 
	C665.546509,160.247040 666.914856,160.655746 668.436096,160.757874 
z"/>
<path fill="#F0F1F1" opacity="1.000000" stroke="none" 
	d="
M583.579163,161.679993 
	C583.911377,165.085800 584.228149,168.147293 580.176086,169.081604 
	C577.493164,169.700241 574.958557,169.615326 574.273193,166.443863 
	C573.632141,163.477631 574.878174,161.114441 578.201294,160.795654 
	C579.920654,160.630722 581.702637,161.118179 583.579163,161.679993 
z"/>
<path fill="#FAFAFB" opacity="1.000000" stroke="none" 
	d="
M323.830811,167.918610 
	C318.098114,169.941406 316.300507,169.273270 315.693237,163.865952 
	C315.150818,159.036240 315.457336,154.024109 316.139343,149.198486 
	C316.337128,147.799042 319.128937,145.812744 320.711578,145.831039 
	C322.289734,145.849258 324.903687,147.821075 325.220917,149.325058 
	C326.508667,155.429703 327.491425,161.712402 323.830811,167.918610 
z"/>
<path fill="#ECEDEE" opacity="1.000000" stroke="none" 
	d="
M745.197449,151.239563 
	C745.862000,147.538025 747.029602,144.519012 751.137268,145.080185 
	C755.085510,145.619614 755.579224,148.809967 755.955688,153.318390 
	C752.034607,152.710480 748.609680,152.179489 745.197449,151.239563 
z"/>
<path fill="#F0F1F1" opacity="1.000000" stroke="none" 
	d="
M382.106018,152.045807 
	C382.119904,147.977982 383.205597,144.757828 387.528046,145.153519 
	C391.687286,145.534271 392.522949,148.695175 391.942230,152.954086 
	C388.646149,152.789352 385.427673,152.628479 382.106018,152.045807 
z"/>
</svg>